<mxfile host="Electron" modified="2023-09-15T18:22:50.179Z" agent="Mozilla/5.0 (Windows NT 10.0; Win64; x64) AppleWebKit/537.36 (KHTML, like Gecko) draw.io/21.7.5 Chrome/114.0.5735.289 Electron/25.8.1 Safari/537.36" etag="2sj1tPG4KngmU2fvP8pU" version="21.7.5" type="device">
  <diagram id="C5RBs43oDa-KdzZeNtuy" name="Page-1">
    <mxGraphModel dx="6302" dy="4459" grid="1" gridSize="10" guides="1" tooltips="1" connect="1" arrows="1" fold="1" page="1" pageScale="1" pageWidth="827" pageHeight="1169" math="0" shadow="0">
      <root>
        <mxCell id="WIyWlLk6GJQsqaUBKTNV-0" />
        <mxCell id="WIyWlLk6GJQsqaUBKTNV-1" parent="WIyWlLk6GJQsqaUBKTNV-0" />
        <mxCell id="zkfFHV4jXpPFQw0GAbJ--6" value="Cliente" style="swimlane;fontStyle=0;align=center;verticalAlign=top;childLayout=stackLayout;horizontal=1;startSize=26;horizontalStack=0;resizeParent=1;resizeLast=0;collapsible=1;marginBottom=0;rounded=0;shadow=0;strokeWidth=1;fillColor=#1ba1e2;fontColor=#000000;strokeColor=#006EAF;" parent="WIyWlLk6GJQsqaUBKTNV-1" vertex="1">
          <mxGeometry x="300" y="-260" width="300" height="470" as="geometry">
            <mxRectangle x="130" y="380" width="160" height="26" as="alternateBounds" />
          </mxGeometry>
        </mxCell>
        <mxCell id="zkfFHV4jXpPFQw0GAbJ--7" value="- idcliente : int" style="text;align=left;verticalAlign=top;spacingLeft=4;spacingRight=4;overflow=hidden;rotatable=0;points=[[0,0.5],[1,0.5]];portConstraint=eastwest;" parent="zkfFHV4jXpPFQw0GAbJ--6" vertex="1">
          <mxGeometry y="26" width="300" height="26" as="geometry" />
        </mxCell>
        <mxCell id="zkfFHV4jXpPFQw0GAbJ--8" value="- email : String&#xa;&#xa;+ " style="text;align=left;verticalAlign=top;spacingLeft=4;spacingRight=4;overflow=hidden;rotatable=0;points=[[0,0.5],[1,0.5]];portConstraint=eastwest;rounded=0;shadow=0;html=0;" parent="zkfFHV4jXpPFQw0GAbJ--6" vertex="1">
          <mxGeometry y="52" width="300" height="28" as="geometry" />
        </mxCell>
        <mxCell id="uS8OOOCSnNwOLfQj2_W_-6" value="- telefone : String" style="text;align=left;verticalAlign=top;spacingLeft=4;spacingRight=4;overflow=hidden;rotatable=0;points=[[0,0.5],[1,0.5]];portConstraint=eastwest;" parent="zkfFHV4jXpPFQw0GAbJ--6" vertex="1">
          <mxGeometry y="80" width="300" height="26" as="geometry" />
        </mxCell>
        <mxCell id="uS8OOOCSnNwOLfQj2_W_-7" value="- endereco  : String&#xa;&#xa;" style="text;align=left;verticalAlign=top;spacingLeft=4;spacingRight=4;overflow=hidden;rotatable=0;points=[[0,0.5],[1,0.5]];portConstraint=eastwest;rounded=0;shadow=0;html=0;" parent="zkfFHV4jXpPFQw0GAbJ--6" vertex="1">
          <mxGeometry y="106" width="300" height="28" as="geometry" />
        </mxCell>
        <mxCell id="zkfFHV4jXpPFQw0GAbJ--9" value="" style="line;html=1;strokeWidth=1;align=left;verticalAlign=middle;spacingTop=-1;spacingLeft=3;spacingRight=3;rotatable=0;labelPosition=right;points=[];portConstraint=eastwest;" parent="zkfFHV4jXpPFQw0GAbJ--6" vertex="1">
          <mxGeometry y="134" width="300" height="16" as="geometry" />
        </mxCell>
        <mxCell id="zkfFHV4jXpPFQw0GAbJ--18" value="+ Cliente ()" style="text;align=left;verticalAlign=top;spacingLeft=4;spacingRight=4;overflow=hidden;rotatable=0;points=[[0,0.5],[1,0.5]];portConstraint=eastwest;" parent="zkfFHV4jXpPFQw0GAbJ--6" vertex="1">
          <mxGeometry y="150" width="300" height="26" as="geometry" />
        </mxCell>
        <mxCell id="zkfFHV4jXpPFQw0GAbJ--19" value="+ Cliente (int idcliente, String nome)" style="text;align=left;verticalAlign=top;spacingLeft=4;spacingRight=4;overflow=hidden;rotatable=0;points=[[0,0.5],[1,0.5]];portConstraint=eastwest;rounded=0;shadow=0;html=0;" parent="zkfFHV4jXpPFQw0GAbJ--6" vertex="1">
          <mxGeometry y="176" width="300" height="26" as="geometry" />
        </mxCell>
        <mxCell id="uS8OOOCSnNwOLfQj2_W_-10" value="+ dadosPessoa ()                                      : void" style="text;align=left;verticalAlign=top;spacingLeft=4;spacingRight=4;overflow=hidden;rotatable=0;points=[[0,0.5],[1,0.5]];portConstraint=eastwest;rounded=0;shadow=0;html=0;" parent="zkfFHV4jXpPFQw0GAbJ--6" vertex="1">
          <mxGeometry y="202" width="300" height="26" as="geometry" />
        </mxCell>
        <mxCell id="uS8OOOCSnNwOLfQj2_W_-11" value="+ alterarCliente ()                                       : void" style="text;align=left;verticalAlign=top;spacingLeft=4;spacingRight=4;overflow=hidden;rotatable=0;points=[[0,0.5],[1,0.5]];portConstraint=eastwest;rounded=0;shadow=0;html=0;" parent="zkfFHV4jXpPFQw0GAbJ--6" vertex="1">
          <mxGeometry y="228" width="300" height="26" as="geometry" />
        </mxCell>
        <mxCell id="uS8OOOCSnNwOLfQj2_W_-12" value="+ getIdcliente ()                                          : int" style="text;align=left;verticalAlign=top;spacingLeft=4;spacingRight=4;overflow=hidden;rotatable=0;points=[[0,0.5],[1,0.5]];portConstraint=eastwest;rounded=0;shadow=0;html=0;" parent="zkfFHV4jXpPFQw0GAbJ--6" vertex="1">
          <mxGeometry y="254" width="300" height="26" as="geometry" />
        </mxCell>
        <mxCell id="uS8OOOCSnNwOLfQj2_W_-15" value="+ setIdcliente (int idcliente)                       : void" style="text;align=left;verticalAlign=top;spacingLeft=4;spacingRight=4;overflow=hidden;rotatable=0;points=[[0,0.5],[1,0.5]];portConstraint=eastwest;" parent="zkfFHV4jXpPFQw0GAbJ--6" vertex="1">
          <mxGeometry y="280" width="300" height="26" as="geometry" />
        </mxCell>
        <mxCell id="uS8OOOCSnNwOLfQj2_W_-16" value="+ getEndereco ()                                        : String" style="text;align=left;verticalAlign=top;spacingLeft=4;spacingRight=4;overflow=hidden;rotatable=0;points=[[0,0.5],[1,0.5]];portConstraint=eastwest;" parent="zkfFHV4jXpPFQw0GAbJ--6" vertex="1">
          <mxGeometry y="306" width="300" height="26" as="geometry" />
        </mxCell>
        <mxCell id="uS8OOOCSnNwOLfQj2_W_-13" value="+ setEndereco (string endereco)             : String" style="text;align=left;verticalAlign=top;spacingLeft=4;spacingRight=4;overflow=hidden;rotatable=0;points=[[0,0.5],[1,0.5]];portConstraint=eastwest;rounded=0;shadow=0;html=0;" parent="zkfFHV4jXpPFQw0GAbJ--6" vertex="1">
          <mxGeometry y="332" width="300" height="26" as="geometry" />
        </mxCell>
        <mxCell id="uS8OOOCSnNwOLfQj2_W_-18" value="+ get Email ()                                              : String" style="text;align=left;verticalAlign=top;spacingLeft=4;spacingRight=4;overflow=hidden;rotatable=0;points=[[0,0.5],[1,0.5]];portConstraint=eastwest;rounded=0;shadow=0;html=0;" parent="zkfFHV4jXpPFQw0GAbJ--6" vertex="1">
          <mxGeometry y="358" width="300" height="26" as="geometry" />
        </mxCell>
        <mxCell id="uS8OOOCSnNwOLfQj2_W_-22" value="+ setEmail (String email)                          : void" style="text;align=left;verticalAlign=top;spacingLeft=4;spacingRight=4;overflow=hidden;rotatable=0;points=[[0,0.5],[1,0.5]];portConstraint=eastwest;" parent="zkfFHV4jXpPFQw0GAbJ--6" vertex="1">
          <mxGeometry y="384" width="300" height="26" as="geometry" />
        </mxCell>
        <mxCell id="uS8OOOCSnNwOLfQj2_W_-19" value="+ getTelefone ()                                          : String&#xa; " style="text;align=left;verticalAlign=top;spacingLeft=4;spacingRight=4;overflow=hidden;rotatable=0;points=[[0,0.5],[1,0.5]];portConstraint=eastwest;rounded=0;shadow=0;html=0;" parent="zkfFHV4jXpPFQw0GAbJ--6" vertex="1">
          <mxGeometry y="410" width="300" height="26" as="geometry" />
        </mxCell>
        <mxCell id="uS8OOOCSnNwOLfQj2_W_-20" value="+ setTelefone (String telefone)                 : String&#xa; " style="text;align=left;verticalAlign=top;spacingLeft=4;spacingRight=4;overflow=hidden;rotatable=0;points=[[0,0.5],[1,0.5]];portConstraint=eastwest;rounded=0;shadow=0;html=0;" parent="zkfFHV4jXpPFQw0GAbJ--6" vertex="1">
          <mxGeometry y="436" width="300" height="34" as="geometry" />
        </mxCell>
        <mxCell id="uS8OOOCSnNwOLfQj2_W_-24" value="Categoria" style="swimlane;fontStyle=0;align=center;verticalAlign=top;childLayout=stackLayout;horizontal=1;startSize=26;horizontalStack=0;resizeParent=1;resizeLast=0;collapsible=1;marginBottom=0;rounded=0;shadow=0;strokeWidth=1;fillColor=#1ba1e2;fontColor=#000000;strokeColor=#006EAF;" parent="WIyWlLk6GJQsqaUBKTNV-1" vertex="1">
          <mxGeometry x="3250" y="-730" width="390" height="340" as="geometry">
            <mxRectangle x="130" y="380" width="160" height="26" as="alternateBounds" />
          </mxGeometry>
        </mxCell>
        <mxCell id="uS8OOOCSnNwOLfQj2_W_-25" value="- idcategoria : int&#xa;" style="text;align=left;verticalAlign=top;spacingLeft=4;spacingRight=4;overflow=hidden;rotatable=0;points=[[0,0.5],[1,0.5]];portConstraint=eastwest;" parent="uS8OOOCSnNwOLfQj2_W_-24" vertex="1">
          <mxGeometry y="26" width="390" height="26" as="geometry" />
        </mxCell>
        <mxCell id="uS8OOOCSnNwOLfQj2_W_-26" value="- nm_categoria : String&#xa;&#xa;+ " style="text;align=left;verticalAlign=top;spacingLeft=4;spacingRight=4;overflow=hidden;rotatable=0;points=[[0,0.5],[1,0.5]];portConstraint=eastwest;rounded=0;shadow=0;html=0;" parent="uS8OOOCSnNwOLfQj2_W_-24" vertex="1">
          <mxGeometry y="52" width="390" height="28" as="geometry" />
        </mxCell>
        <mxCell id="uS8OOOCSnNwOLfQj2_W_-27" value="- descricao : String&#xa;" style="text;align=left;verticalAlign=top;spacingLeft=4;spacingRight=4;overflow=hidden;rotatable=0;points=[[0,0.5],[1,0.5]];portConstraint=eastwest;" parent="uS8OOOCSnNwOLfQj2_W_-24" vertex="1">
          <mxGeometry y="80" width="390" height="26" as="geometry" />
        </mxCell>
        <mxCell id="uS8OOOCSnNwOLfQj2_W_-29" value="" style="line;html=1;strokeWidth=1;align=left;verticalAlign=middle;spacingTop=-1;spacingLeft=3;spacingRight=3;rotatable=0;labelPosition=right;points=[];portConstraint=eastwest;" parent="uS8OOOCSnNwOLfQj2_W_-24" vertex="1">
          <mxGeometry y="106" width="390" height="16" as="geometry" />
        </mxCell>
        <mxCell id="uS8OOOCSnNwOLfQj2_W_-30" value="+ Categoria ()&#xa;" style="text;align=left;verticalAlign=top;spacingLeft=4;spacingRight=4;overflow=hidden;rotatable=0;points=[[0,0.5],[1,0.5]];portConstraint=eastwest;" parent="uS8OOOCSnNwOLfQj2_W_-24" vertex="1">
          <mxGeometry y="122" width="390" height="26" as="geometry" />
        </mxCell>
        <mxCell id="uS8OOOCSnNwOLfQj2_W_-31" value="+ Categoria (int idcategoria, String nm_categoria)&#xa;" style="text;align=left;verticalAlign=top;spacingLeft=4;spacingRight=4;overflow=hidden;rotatable=0;points=[[0,0.5],[1,0.5]];portConstraint=eastwest;rounded=0;shadow=0;html=0;" parent="uS8OOOCSnNwOLfQj2_W_-24" vertex="1">
          <mxGeometry y="148" width="390" height="26" as="geometry" />
        </mxCell>
        <mxCell id="uS8OOOCSnNwOLfQj2_W_-32" value="+ getIdcategoria ()                                                               : int&#xa;" style="text;align=left;verticalAlign=top;spacingLeft=4;spacingRight=4;overflow=hidden;rotatable=0;points=[[0,0.5],[1,0.5]];portConstraint=eastwest;rounded=0;shadow=0;html=0;" parent="uS8OOOCSnNwOLfQj2_W_-24" vertex="1">
          <mxGeometry y="174" width="390" height="26" as="geometry" />
        </mxCell>
        <mxCell id="uS8OOOCSnNwOLfQj2_W_-33" value="+ setIdcategoria ()                                                               : int&#xa;" style="text;align=left;verticalAlign=top;spacingLeft=4;spacingRight=4;overflow=hidden;rotatable=0;points=[[0,0.5],[1,0.5]];portConstraint=eastwest;rounded=0;shadow=0;html=0;" parent="uS8OOOCSnNwOLfQj2_W_-24" vertex="1">
          <mxGeometry y="200" width="390" height="26" as="geometry" />
        </mxCell>
        <mxCell id="uS8OOOCSnNwOLfQj2_W_-34" value="+ getDescricao ()                                                                : String&#xa;" style="text;align=left;verticalAlign=top;spacingLeft=4;spacingRight=4;overflow=hidden;rotatable=0;points=[[0,0.5],[1,0.5]];portConstraint=eastwest;rounded=0;shadow=0;html=0;" parent="uS8OOOCSnNwOLfQj2_W_-24" vertex="1">
          <mxGeometry y="226" width="390" height="26" as="geometry" />
        </mxCell>
        <mxCell id="uS8OOOCSnNwOLfQj2_W_-35" value="+ setDescricao (int idcliente)                                             : void&#xa;" style="text;align=left;verticalAlign=top;spacingLeft=4;spacingRight=4;overflow=hidden;rotatable=0;points=[[0,0.5],[1,0.5]];portConstraint=eastwest;" parent="uS8OOOCSnNwOLfQj2_W_-24" vertex="1">
          <mxGeometry y="252" width="390" height="26" as="geometry" />
        </mxCell>
        <mxCell id="uS8OOOCSnNwOLfQj2_W_-36" value="+ getNm_categoria ()                                                          : String&#xa;" style="text;align=left;verticalAlign=top;spacingLeft=4;spacingRight=4;overflow=hidden;rotatable=0;points=[[0,0.5],[1,0.5]];portConstraint=eastwest;" parent="uS8OOOCSnNwOLfQj2_W_-24" vertex="1">
          <mxGeometry y="278" width="390" height="26" as="geometry" />
        </mxCell>
        <mxCell id="uS8OOOCSnNwOLfQj2_W_-37" value="+ setNm_categoria (string endereco)                               : String&#xa;" style="text;align=left;verticalAlign=top;spacingLeft=4;spacingRight=4;overflow=hidden;rotatable=0;points=[[0,0.5],[1,0.5]];portConstraint=eastwest;rounded=0;shadow=0;html=0;" parent="uS8OOOCSnNwOLfQj2_W_-24" vertex="1">
          <mxGeometry y="304" width="390" height="26" as="geometry" />
        </mxCell>
        <mxCell id="uS8OOOCSnNwOLfQj2_W_-42" value="Empresa" style="swimlane;fontStyle=0;align=center;verticalAlign=top;childLayout=stackLayout;horizontal=1;startSize=26;horizontalStack=0;resizeParent=1;resizeLast=0;collapsible=1;marginBottom=0;rounded=0;shadow=0;strokeWidth=1;fontColor=#000000;fillColor=#1ba1e2;strokeColor=#006EAF;" parent="WIyWlLk6GJQsqaUBKTNV-1" vertex="1">
          <mxGeometry x="1160" y="120" width="480" height="1242" as="geometry">
            <mxRectangle x="130" y="380" width="160" height="26" as="alternateBounds" />
          </mxGeometry>
        </mxCell>
        <mxCell id="uS8OOOCSnNwOLfQj2_W_-43" value="+ clientes : ListaClientes&#xa;&#xa;+" style="text;align=left;verticalAlign=top;spacingLeft=4;spacingRight=4;overflow=hidden;rotatable=0;points=[[0,0.5],[1,0.5]];portConstraint=eastwest;" parent="uS8OOOCSnNwOLfQj2_W_-42" vertex="1">
          <mxGeometry y="26" width="480" height="26" as="geometry" />
        </mxCell>
        <mxCell id="uS8OOOCSnNwOLfQj2_W_-44" value="+ produtos : ListaProdutos&#xa;&#xa;&#xa;+ " style="text;align=left;verticalAlign=top;spacingLeft=4;spacingRight=4;overflow=hidden;rotatable=0;points=[[0,0.5],[1,0.5]];portConstraint=eastwest;rounded=0;shadow=0;html=0;" parent="uS8OOOCSnNwOLfQj2_W_-42" vertex="1">
          <mxGeometry y="52" width="480" height="28" as="geometry" />
        </mxCell>
        <mxCell id="uS8OOOCSnNwOLfQj2_W_-45" value="+ pedidos : ListaPedidos&#xa;&#xa;" style="text;align=left;verticalAlign=top;spacingLeft=4;spacingRight=4;overflow=hidden;rotatable=0;points=[[0,0.5],[1,0.5]];portConstraint=eastwest;" parent="uS8OOOCSnNwOLfQj2_W_-42" vertex="1">
          <mxGeometry y="80" width="480" height="26" as="geometry" />
        </mxCell>
        <mxCell id="uS8OOOCSnNwOLfQj2_W_-46" value="+ pedidos2  : ListaPedidos&#xa;&#xa;&#xa;" style="text;align=left;verticalAlign=top;spacingLeft=4;spacingRight=4;overflow=hidden;rotatable=0;points=[[0,0.5],[1,0.5]];portConstraint=eastwest;rounded=0;shadow=0;html=0;" parent="uS8OOOCSnNwOLfQj2_W_-42" vertex="1">
          <mxGeometry y="106" width="480" height="28" as="geometry" />
        </mxCell>
        <mxCell id="uS8OOOCSnNwOLfQj2_W_-66" value="- cliente : Cliente [ ]&#xa;" style="text;align=left;verticalAlign=top;spacingLeft=4;spacingRight=4;overflow=hidden;rotatable=0;points=[[0,0.5],[1,0.5]];portConstraint=eastwest;" parent="uS8OOOCSnNwOLfQj2_W_-42" vertex="1">
          <mxGeometry y="134" width="480" height="26" as="geometry" />
        </mxCell>
        <mxCell id="uS8OOOCSnNwOLfQj2_W_-78" value="- produto : Produto [ ]&#xa;" style="text;align=left;verticalAlign=top;spacingLeft=4;spacingRight=4;overflow=hidden;rotatable=0;points=[[0,0.5],[1,0.5]];portConstraint=eastwest;" parent="uS8OOOCSnNwOLfQj2_W_-42" vertex="1">
          <mxGeometry y="160" width="480" height="26" as="geometry" />
        </mxCell>
        <mxCell id="uS8OOOCSnNwOLfQj2_W_-79" value="- pedido : Pedido [ ]&#xa;" style="text;align=left;verticalAlign=top;spacingLeft=4;spacingRight=4;overflow=hidden;rotatable=0;points=[[0,0.5],[1,0.5]];portConstraint=eastwest;" parent="uS8OOOCSnNwOLfQj2_W_-42" vertex="1">
          <mxGeometry y="186" width="480" height="26" as="geometry" />
        </mxCell>
        <mxCell id="uS8OOOCSnNwOLfQj2_W_-80" value="- categoria: Categoria [ ]&#xa;&#xa;" style="text;align=left;verticalAlign=top;spacingLeft=4;spacingRight=4;overflow=hidden;rotatable=0;points=[[0,0.5],[1,0.5]];portConstraint=eastwest;" parent="uS8OOOCSnNwOLfQj2_W_-42" vertex="1">
          <mxGeometry y="212" width="480" height="26" as="geometry" />
        </mxCell>
        <mxCell id="uS8OOOCSnNwOLfQj2_W_-81" value="- pedidocarrinho : Pedidocarrinho [ ]&#xa;" style="text;align=left;verticalAlign=top;spacingLeft=4;spacingRight=4;overflow=hidden;rotatable=0;points=[[0,0.5],[1,0.5]];portConstraint=eastwest;" parent="uS8OOOCSnNwOLfQj2_W_-42" vertex="1">
          <mxGeometry y="238" width="480" height="26" as="geometry" />
        </mxCell>
        <mxCell id="uS8OOOCSnNwOLfQj2_W_-63" value="- pedidoAlterado : ProdutoCarrinho&#xa;&#xa;" style="text;align=left;verticalAlign=top;spacingLeft=4;spacingRight=4;overflow=hidden;rotatable=0;points=[[0,0.5],[1,0.5]];portConstraint=eastwest;" parent="uS8OOOCSnNwOLfQj2_W_-42" vertex="1">
          <mxGeometry y="264" width="480" height="26" as="geometry" />
        </mxCell>
        <mxCell id="uS8OOOCSnNwOLfQj2_W_-62" value="- con : Conexao&#xa;&#xa;&#xa;" style="text;align=left;verticalAlign=top;spacingLeft=4;spacingRight=4;overflow=hidden;rotatable=0;points=[[0,0.5],[1,0.5]];portConstraint=eastwest;rounded=0;shadow=0;html=0;" parent="uS8OOOCSnNwOLfQj2_W_-42" vertex="1">
          <mxGeometry y="290" width="480" height="28" as="geometry" />
        </mxCell>
        <mxCell id="uS8OOOCSnNwOLfQj2_W_-61" value="- schema : String&#xa;" style="text;align=left;verticalAlign=top;spacingLeft=4;spacingRight=4;overflow=hidden;rotatable=0;points=[[0,0.5],[1,0.5]];portConstraint=eastwest;" parent="uS8OOOCSnNwOLfQj2_W_-42" vertex="1">
          <mxGeometry y="318" width="480" height="26" as="geometry" />
        </mxCell>
        <mxCell id="uS8OOOCSnNwOLfQj2_W_-47" value="" style="line;html=1;strokeWidth=1;align=left;verticalAlign=middle;spacingTop=-1;spacingLeft=3;spacingRight=3;rotatable=0;labelPosition=right;points=[];portConstraint=eastwest;" parent="uS8OOOCSnNwOLfQj2_W_-42" vertex="1">
          <mxGeometry y="344" width="480" height="6" as="geometry" />
        </mxCell>
        <mxCell id="uS8OOOCSnNwOLfQj2_W_-48" value="+ Empresa (Conexao con, String Schema)                          &#xa;" style="text;align=left;verticalAlign=top;spacingLeft=4;spacingRight=4;overflow=hidden;rotatable=0;points=[[0,0.5],[1,0.5]];portConstraint=eastwest;" parent="uS8OOOCSnNwOLfQj2_W_-42" vertex="1">
          <mxGeometry y="350" width="480" height="26" as="geometry" />
        </mxCell>
        <mxCell id="uS8OOOCSnNwOLfQj2_W_-49" value="+ cadastrarCliente (int idcliente, String nome)                                           : Cliente" style="text;align=left;verticalAlign=top;spacingLeft=4;spacingRight=4;overflow=hidden;rotatable=0;points=[[0,0.5],[1,0.5]];portConstraint=eastwest;rounded=0;shadow=0;html=0;" parent="uS8OOOCSnNwOLfQj2_W_-42" vertex="1">
          <mxGeometry y="376" width="480" height="26" as="geometry" />
        </mxCell>
        <mxCell id="uS8OOOCSnNwOLfQj2_W_-54" value="+ adicionarCliente (Cliente cliente)                                                             : Cliente&#xa;" style="text;align=left;verticalAlign=top;spacingLeft=4;spacingRight=4;overflow=hidden;rotatable=0;points=[[0,0.5],[1,0.5]];portConstraint=eastwest;" parent="uS8OOOCSnNwOLfQj2_W_-42" vertex="1">
          <mxGeometry y="402" width="480" height="26" as="geometry" />
        </mxCell>
        <mxCell id="uS8OOOCSnNwOLfQj2_W_-50" value="+ localizarCliente ()                                                                                        : Cliente&#xa;" style="text;align=left;verticalAlign=top;spacingLeft=4;spacingRight=4;overflow=hidden;rotatable=0;points=[[0,0.5],[1,0.5]];portConstraint=eastwest;rounded=0;shadow=0;html=0;" parent="uS8OOOCSnNwOLfQj2_W_-42" vertex="1">
          <mxGeometry y="428" width="480" height="26" as="geometry" />
        </mxCell>
        <mxCell id="uS8OOOCSnNwOLfQj2_W_-51" value="+ atualizarDadosCliente (Cliente cl)                                                            : void&#xa;" style="text;align=left;verticalAlign=top;spacingLeft=4;spacingRight=4;overflow=hidden;rotatable=0;points=[[0,0.5],[1,0.5]];portConstraint=eastwest;rounded=0;shadow=0;html=0;" parent="uS8OOOCSnNwOLfQj2_W_-42" vertex="1">
          <mxGeometry y="454" width="480" height="26" as="geometry" />
        </mxCell>
        <mxCell id="uS8OOOCSnNwOLfQj2_W_-52" value="+ listarDadosClientes ()                                                                                : void&#xa;" style="text;align=left;verticalAlign=top;spacingLeft=4;spacingRight=4;overflow=hidden;rotatable=0;points=[[0,0.5],[1,0.5]];portConstraint=eastwest;rounded=0;shadow=0;html=0;" parent="uS8OOOCSnNwOLfQj2_W_-42" vertex="1">
          <mxGeometry y="480" width="480" height="26" as="geometry" />
        </mxCell>
        <mxCell id="uS8OOOCSnNwOLfQj2_W_-53" value="+ excluirCliente (Cliente cl)                                                                           : void&#xa;" style="text;align=left;verticalAlign=top;spacingLeft=4;spacingRight=4;overflow=hidden;rotatable=0;points=[[0,0.5],[1,0.5]];portConstraint=eastwest;" parent="uS8OOOCSnNwOLfQj2_W_-42" vertex="1">
          <mxGeometry y="506" width="480" height="26" as="geometry" />
        </mxCell>
        <mxCell id="uS8OOOCSnNwOLfQj2_W_-55" value="+ cadastrarProduto ()                                                                                    : Produto&#xa;" style="text;align=left;verticalAlign=top;spacingLeft=4;spacingRight=4;overflow=hidden;rotatable=0;points=[[0,0.5],[1,0.5]];portConstraint=eastwest;rounded=0;shadow=0;html=0;" parent="uS8OOOCSnNwOLfQj2_W_-42" vertex="1">
          <mxGeometry y="532" width="480" height="26" as="geometry" />
        </mxCell>
        <mxCell id="uS8OOOCSnNwOLfQj2_W_-56" value="+ adicionarProduto (Produto produto)                                                        : void&#xa;" style="text;align=left;verticalAlign=top;spacingLeft=4;spacingRight=4;overflow=hidden;rotatable=0;points=[[0,0.5],[1,0.5]];portConstraint=eastwest;rounded=0;shadow=0;html=0;" parent="uS8OOOCSnNwOLfQj2_W_-42" vertex="1">
          <mxGeometry y="558" width="480" height="26" as="geometry" />
        </mxCell>
        <mxCell id="uS8OOOCSnNwOLfQj2_W_-57" value="+ localizarProduto ()                                                                                      : Produto&#xa;" style="text;align=left;verticalAlign=top;spacingLeft=4;spacingRight=4;overflow=hidden;rotatable=0;points=[[0,0.5],[1,0.5]];portConstraint=eastwest;" parent="uS8OOOCSnNwOLfQj2_W_-42" vertex="1">
          <mxGeometry y="584" width="480" height="26" as="geometry" />
        </mxCell>
        <mxCell id="uS8OOOCSnNwOLfQj2_W_-58" value="+atualizarDadosProduto (Produto produto)                                               : void&#xa; " style="text;align=left;verticalAlign=top;spacingLeft=4;spacingRight=4;overflow=hidden;rotatable=0;points=[[0,0.5],[1,0.5]];portConstraint=eastwest;rounded=0;shadow=0;html=0;" parent="uS8OOOCSnNwOLfQj2_W_-42" vertex="1">
          <mxGeometry y="610" width="480" height="26" as="geometry" />
        </mxCell>
        <mxCell id="uS8OOOCSnNwOLfQj2_W_-59" value="+ listarDadosProdutos ()                                                                               : void&#xa; " style="text;align=left;verticalAlign=top;spacingLeft=4;spacingRight=4;overflow=hidden;rotatable=0;points=[[0,0.5],[1,0.5]];portConstraint=eastwest;rounded=0;shadow=0;html=0;" parent="uS8OOOCSnNwOLfQj2_W_-42" vertex="1">
          <mxGeometry y="636" width="480" height="34" as="geometry" />
        </mxCell>
        <mxCell id="uS8OOOCSnNwOLfQj2_W_-90" value="+ excluirProduto (Produto prod)                                                                   : void&#xa;" style="text;align=left;verticalAlign=top;spacingLeft=4;spacingRight=4;overflow=hidden;rotatable=0;points=[[0,0.5],[1,0.5]];portConstraint=eastwest;rounded=0;shadow=0;html=0;" parent="uS8OOOCSnNwOLfQj2_W_-42" vertex="1">
          <mxGeometry y="670" width="480" height="26" as="geometry" />
        </mxCell>
        <mxCell id="uS8OOOCSnNwOLfQj2_W_-98" value="+ cadastrarPedido ()                                                                                     : Pedido&#xa;&#xa; " style="text;align=left;verticalAlign=top;spacingLeft=4;spacingRight=4;overflow=hidden;rotatable=0;points=[[0,0.5],[1,0.5]];portConstraint=eastwest;rounded=0;shadow=0;html=0;" parent="uS8OOOCSnNwOLfQj2_W_-42" vertex="1">
          <mxGeometry y="696" width="480" height="26" as="geometry" />
        </mxCell>
        <mxCell id="uS8OOOCSnNwOLfQj2_W_-97" value="+ adicionarPedido (Pedido pedido)                                                           : void&#xa;" style="text;align=left;verticalAlign=top;spacingLeft=4;spacingRight=4;overflow=hidden;rotatable=0;points=[[0,0.5],[1,0.5]];portConstraint=eastwest;" parent="uS8OOOCSnNwOLfQj2_W_-42" vertex="1">
          <mxGeometry y="722" width="480" height="26" as="geometry" />
        </mxCell>
        <mxCell id="uS8OOOCSnNwOLfQj2_W_-96" value="+ inserirProdutoCarrinho (Pedido pd)                                                        : Pedido&#xa;" style="text;align=left;verticalAlign=top;spacingLeft=4;spacingRight=4;overflow=hidden;rotatable=0;points=[[0,0.5],[1,0.5]];portConstraint=eastwest;rounded=0;shadow=0;html=0;" parent="uS8OOOCSnNwOLfQj2_W_-42" vertex="1">
          <mxGeometry y="748" width="480" height="26" as="geometry" />
        </mxCell>
        <mxCell id="uS8OOOCSnNwOLfQj2_W_-95" value="+ alterarQtdOuProduto (ProdutoCarrinho pc, Pedido pd)                        : String&#xa;" style="text;align=left;verticalAlign=top;spacingLeft=4;spacingRight=4;overflow=hidden;rotatable=0;points=[[0,0.5],[1,0.5]];portConstraint=eastwest;rounded=0;shadow=0;html=0;" parent="uS8OOOCSnNwOLfQj2_W_-42" vertex="1">
          <mxGeometry y="774" width="480" height="26" as="geometry" />
        </mxCell>
        <mxCell id="uS8OOOCSnNwOLfQj2_W_-94" value="+ alterarProdutoCarrinho (Pedido pd)                                                        : Pedido&#xa;" style="text;align=left;verticalAlign=top;spacingLeft=4;spacingRight=4;overflow=hidden;rotatable=0;points=[[0,0.5],[1,0.5]];portConstraint=eastwest;" parent="uS8OOOCSnNwOLfQj2_W_-42" vertex="1">
          <mxGeometry y="800" width="480" height="26" as="geometry" />
        </mxCell>
        <mxCell id="uS8OOOCSnNwOLfQj2_W_-93" value="+ inserirNoBd (Pedido pd, ArrayList&lt;ProdutoCarrinho&gt; pc)                    : void&#xa;" style="text;align=left;verticalAlign=top;spacingLeft=4;spacingRight=4;overflow=hidden;rotatable=0;points=[[0,0.5],[1,0.5]];portConstraint=eastwest;" parent="uS8OOOCSnNwOLfQj2_W_-42" vertex="1">
          <mxGeometry y="826" width="480" height="26" as="geometry" />
        </mxCell>
        <mxCell id="uS8OOOCSnNwOLfQj2_W_-92" value="+ inserirAlteracaoNoBd (Pedido pd, ProdutoCarrinho pc)                      : void&#xa;" style="text;align=left;verticalAlign=top;spacingLeft=4;spacingRight=4;overflow=hidden;rotatable=0;points=[[0,0.5],[1,0.5]];portConstraint=eastwest;rounded=0;shadow=0;html=0;" parent="uS8OOOCSnNwOLfQj2_W_-42" vertex="1">
          <mxGeometry y="852" width="480" height="26" as="geometry" />
        </mxCell>
        <mxCell id="uS8OOOCSnNwOLfQj2_W_-91" value="+ verificarEstoque (int idprod, int quant)                                                     : boolean&#xa;" style="text;align=left;verticalAlign=top;spacingLeft=4;spacingRight=4;overflow=hidden;rotatable=0;points=[[0,0.5],[1,0.5]];portConstraint=eastwest;rounded=0;shadow=0;html=0;" parent="uS8OOOCSnNwOLfQj2_W_-42" vertex="1">
          <mxGeometry y="878" width="480" height="26" as="geometry" />
        </mxCell>
        <mxCell id="uS8OOOCSnNwOLfQj2_W_-89" value="+ listarDadosPedidos ()                                                                                : void&#xa;&#xa;" style="text;align=left;verticalAlign=top;spacingLeft=4;spacingRight=4;overflow=hidden;rotatable=0;points=[[0,0.5],[1,0.5]];portConstraint=eastwest;rounded=0;shadow=0;html=0;" parent="uS8OOOCSnNwOLfQj2_W_-42" vertex="1">
          <mxGeometry y="904" width="480" height="26" as="geometry" />
        </mxCell>
        <mxCell id="uS8OOOCSnNwOLfQj2_W_-100" value="+ listarPedidosComProdutos (int idprod)                                                   : void&#xa;" style="text;align=left;verticalAlign=top;spacingLeft=4;spacingRight=4;overflow=hidden;rotatable=0;points=[[0,0.5],[1,0.5]];portConstraint=eastwest;rounded=0;shadow=0;html=0;" parent="uS8OOOCSnNwOLfQj2_W_-42" vertex="1">
          <mxGeometry y="930" width="480" height="26" as="geometry" />
        </mxCell>
        <mxCell id="uS8OOOCSnNwOLfQj2_W_-101" value="+ excluirPedido (Pedido pedi)                                                                      : void&#xa;" style="text;align=left;verticalAlign=top;spacingLeft=4;spacingRight=4;overflow=hidden;rotatable=0;points=[[0,0.5],[1,0.5]];portConstraint=eastwest;rounded=0;shadow=0;html=0;" parent="uS8OOOCSnNwOLfQj2_W_-42" vertex="1">
          <mxGeometry y="956" width="480" height="26" as="geometry" />
        </mxCell>
        <mxCell id="uS8OOOCSnNwOLfQj2_W_-102" value="+ adicionarProdutoCarrinho (Produto 1, int quant)                                    : void&#xa;" style="text;align=left;verticalAlign=top;spacingLeft=4;spacingRight=4;overflow=hidden;rotatable=0;points=[[0,0.5],[1,0.5]];portConstraint=eastwest;rounded=0;shadow=0;html=0;" parent="uS8OOOCSnNwOLfQj2_W_-42" vertex="1">
          <mxGeometry y="982" width="480" height="26" as="geometry" />
        </mxCell>
        <mxCell id="uS8OOOCSnNwOLfQj2_W_-103" value="+ localizarPedido (int idcliente, String nome)                                             : Pedido&#xa;" style="text;align=left;verticalAlign=top;spacingLeft=4;spacingRight=4;overflow=hidden;rotatable=0;points=[[0,0.5],[1,0.5]];portConstraint=eastwest;rounded=0;shadow=0;html=0;" parent="uS8OOOCSnNwOLfQj2_W_-42" vertex="1">
          <mxGeometry y="1008" width="480" height="26" as="geometry" />
        </mxCell>
        <mxCell id="uS8OOOCSnNwOLfQj2_W_-104" value="+ atualizarPedidoItem (ProdutoCarrinho pc)                                             : ProdutoCarrinho&#xa;" style="text;align=left;verticalAlign=top;spacingLeft=4;spacingRight=4;overflow=hidden;rotatable=0;points=[[0,0.5],[1,0.5]];portConstraint=eastwest;rounded=0;shadow=0;html=0;" parent="uS8OOOCSnNwOLfQj2_W_-42" vertex="1">
          <mxGeometry y="1034" width="480" height="26" as="geometry" />
        </mxCell>
        <mxCell id="lKfXKW-pfRKCR70L9pjV-0" value="+ alterarQtdPedidoItens (ProdutoCarrinho pc)                                             : ProdutoCarrinho&#xa;" style="text;align=left;verticalAlign=top;spacingLeft=4;spacingRight=4;overflow=hidden;rotatable=0;points=[[0,0.5],[1,0.5]];portConstraint=eastwest;rounded=0;shadow=0;html=0;" vertex="1" parent="uS8OOOCSnNwOLfQj2_W_-42">
          <mxGeometry y="1060" width="480" height="26" as="geometry" />
        </mxCell>
        <mxCell id="uS8OOOCSnNwOLfQj2_W_-105" value="+ alterarQtdPedidoItem (ProdutoCarrinho pc, Pedido pd)                         : ProdutoCarrinho&#xa;" style="text;align=left;verticalAlign=top;spacingLeft=4;spacingRight=4;overflow=hidden;rotatable=0;points=[[0,0.5],[1,0.5]];portConstraint=eastwest;rounded=0;shadow=0;html=0;" parent="uS8OOOCSnNwOLfQj2_W_-42" vertex="1">
          <mxGeometry y="1086" width="480" height="26" as="geometry" />
        </mxCell>
        <mxCell id="uS8OOOCSnNwOLfQj2_W_-106" value="+ alterarRemoverPedidoItem (ProdutoCarrinho pc, Pedido pd)                       : ProdutoCarrinho&#xa;&#xa;" style="text;align=left;verticalAlign=top;spacingLeft=4;spacingRight=4;overflow=hidden;rotatable=0;points=[[0,0.5],[1,0.5]];portConstraint=eastwest;rounded=0;shadow=0;html=0;" parent="uS8OOOCSnNwOLfQj2_W_-42" vertex="1">
          <mxGeometry y="1112" width="480" height="26" as="geometry" />
        </mxCell>
        <mxCell id="lKfXKW-pfRKCR70L9pjV-2" value="+ inserirAlteracaoRemoverNoBd (Pedido pd,ProdutoCarrinho pc)                 : void&#xa;&#xa;" style="text;align=left;verticalAlign=top;spacingLeft=4;spacingRight=4;overflow=hidden;rotatable=0;points=[[0,0.5],[1,0.5]];portConstraint=eastwest;rounded=0;shadow=0;html=0;" vertex="1" parent="uS8OOOCSnNwOLfQj2_W_-42">
          <mxGeometry y="1138" width="480" height="26" as="geometry" />
        </mxCell>
        <mxCell id="lKfXKW-pfRKCR70L9pjV-1" value="+ alterarPedidoItem (ProdutoCarrinho pc, Pedido pd)                          : ProdutoCarrinho&#xa;&#xa;" style="text;align=left;verticalAlign=top;spacingLeft=4;spacingRight=4;overflow=hidden;rotatable=0;points=[[0,0.5],[1,0.5]];portConstraint=eastwest;rounded=0;shadow=0;html=0;" vertex="1" parent="uS8OOOCSnNwOLfQj2_W_-42">
          <mxGeometry y="1164" width="480" height="26" as="geometry" />
        </mxCell>
        <mxCell id="uS8OOOCSnNwOLfQj2_W_-107" value="+ cadastrarCategoria ()                                                                                 : Categoria&#xa;" style="text;align=left;verticalAlign=top;spacingLeft=4;spacingRight=4;overflow=hidden;rotatable=0;points=[[0,0.5],[1,0.5]];portConstraint=eastwest;rounded=0;shadow=0;html=0;" parent="uS8OOOCSnNwOLfQj2_W_-42" vertex="1">
          <mxGeometry y="1190" width="480" height="26" as="geometry" />
        </mxCell>
        <mxCell id="uS8OOOCSnNwOLfQj2_W_-108" value="+ adicionarCategoria (Categoria categoria)                                              : Categoria&#xa;" style="text;align=left;verticalAlign=top;spacingLeft=4;spacingRight=4;overflow=hidden;rotatable=0;points=[[0,0.5],[1,0.5]];portConstraint=eastwest;rounded=0;shadow=0;html=0;" parent="uS8OOOCSnNwOLfQj2_W_-42" vertex="1">
          <mxGeometry y="1216" width="480" height="26" as="geometry" />
        </mxCell>
        <mxCell id="uS8OOOCSnNwOLfQj2_W_-82" value="ListaClientes" style="swimlane;fontStyle=0;align=center;verticalAlign=top;childLayout=stackLayout;horizontal=1;startSize=26;horizontalStack=0;resizeParent=1;resizeLast=0;collapsible=1;marginBottom=0;rounded=0;shadow=0;strokeWidth=1;fontColor=#ffffff;fillColor=#1ba1e2;strokeColor=#006EAF;" parent="WIyWlLk6GJQsqaUBKTNV-1" vertex="1">
          <mxGeometry x="770" y="-310" width="350" height="310" as="geometry">
            <mxRectangle x="130" y="380" width="160" height="26" as="alternateBounds" />
          </mxGeometry>
        </mxCell>
        <mxCell id="uS8OOOCSnNwOLfQj2_W_-83" value="- con : Conexao&#xa;" style="text;align=left;verticalAlign=top;spacingLeft=4;spacingRight=4;overflow=hidden;rotatable=0;points=[[0,0.5],[1,0.5]];portConstraint=eastwest;" parent="uS8OOOCSnNwOLfQj2_W_-82" vertex="1">
          <mxGeometry y="26" width="350" height="26" as="geometry" />
        </mxCell>
        <mxCell id="uS8OOOCSnNwOLfQj2_W_-84" value="- schema : String&#xa;&#xa;" style="text;align=left;verticalAlign=top;spacingLeft=4;spacingRight=4;overflow=hidden;rotatable=0;points=[[0,0.5],[1,0.5]];portConstraint=eastwest;rounded=0;shadow=0;html=0;" parent="uS8OOOCSnNwOLfQj2_W_-82" vertex="1">
          <mxGeometry y="52" width="350" height="28" as="geometry" />
        </mxCell>
        <mxCell id="uS8OOOCSnNwOLfQj2_W_-85" value="+ listacliente : Cliente [ ]&#xa;&#xa;" style="text;align=left;verticalAlign=top;spacingLeft=4;spacingRight=4;overflow=hidden;rotatable=0;points=[[0,0.5],[1,0.5]];portConstraint=eastwest;" parent="uS8OOOCSnNwOLfQj2_W_-82" vertex="1">
          <mxGeometry y="80" width="350" height="26" as="geometry" />
        </mxCell>
        <mxCell id="uS8OOOCSnNwOLfQj2_W_-87" value="" style="line;html=1;strokeWidth=1;align=left;verticalAlign=middle;spacingTop=-1;spacingLeft=3;spacingRight=3;rotatable=0;labelPosition=right;points=[];portConstraint=eastwest;" parent="uS8OOOCSnNwOLfQj2_W_-82" vertex="1">
          <mxGeometry y="106" width="350" height="16" as="geometry" />
        </mxCell>
        <mxCell id="uS8OOOCSnNwOLfQj2_W_-88" value="+ ListaClientes (Conexao con, string schema)&#xa;" style="text;align=left;verticalAlign=top;spacingLeft=4;spacingRight=4;overflow=hidden;rotatable=0;points=[[0,0.5],[1,0.5]];portConstraint=eastwest;" parent="uS8OOOCSnNwOLfQj2_W_-82" vertex="1">
          <mxGeometry y="122" width="350" height="26" as="geometry" />
        </mxCell>
        <mxCell id="uS8OOOCSnNwOLfQj2_W_-109" value="+ adicionarClienteLista (Cliente c)                                 : void&#xa;" style="text;align=left;verticalAlign=top;spacingLeft=4;spacingRight=4;overflow=hidden;rotatable=0;points=[[0,0.5],[1,0.5]];portConstraint=eastwest;" parent="uS8OOOCSnNwOLfQj2_W_-82" vertex="1">
          <mxGeometry y="148" width="350" height="26" as="geometry" />
        </mxCell>
        <mxCell id="uS8OOOCSnNwOLfQj2_W_-110" value="+ localizarCliente (int idCliente)                                      : Cliente&#xa;" style="text;align=left;verticalAlign=top;spacingLeft=4;spacingRight=4;overflow=hidden;rotatable=0;points=[[0,0.5],[1,0.5]];portConstraint=eastwest;" parent="uS8OOOCSnNwOLfQj2_W_-82" vertex="1">
          <mxGeometry y="174" width="350" height="26" as="geometry" />
        </mxCell>
        <mxCell id="uS8OOOCSnNwOLfQj2_W_-111" value="+ carregarListaClientes ()                                               : void&#xa;" style="text;align=left;verticalAlign=top;spacingLeft=4;spacingRight=4;overflow=hidden;rotatable=0;points=[[0,0.5],[1,0.5]];portConstraint=eastwest;" parent="uS8OOOCSnNwOLfQj2_W_-82" vertex="1">
          <mxGeometry y="200" width="350" height="26" as="geometry" />
        </mxCell>
        <mxCell id="uS8OOOCSnNwOLfQj2_W_-112" value="+ dadosCliente (ResultSet tabela)                                 : Cliente&#xa;" style="text;align=left;verticalAlign=top;spacingLeft=4;spacingRight=4;overflow=hidden;rotatable=0;points=[[0,0.5],[1,0.5]];portConstraint=eastwest;" parent="uS8OOOCSnNwOLfQj2_W_-82" vertex="1">
          <mxGeometry y="226" width="350" height="26" as="geometry" />
        </mxCell>
        <mxCell id="uS8OOOCSnNwOLfQj2_W_-113" value="+ getListacliente ()                                                             : Cliente [ ]" style="text;align=left;verticalAlign=top;spacingLeft=4;spacingRight=4;overflow=hidden;rotatable=0;points=[[0,0.5],[1,0.5]];portConstraint=eastwest;" parent="uS8OOOCSnNwOLfQj2_W_-82" vertex="1">
          <mxGeometry y="252" width="350" height="26" as="geometry" />
        </mxCell>
        <mxCell id="uS8OOOCSnNwOLfQj2_W_-114" value="+setListacliente (ArrayList &lt;Cliente&gt; listacliente)      : void&#xa;" style="text;align=left;verticalAlign=top;spacingLeft=4;spacingRight=4;overflow=hidden;rotatable=0;points=[[0,0.5],[1,0.5]];portConstraint=eastwest;" parent="uS8OOOCSnNwOLfQj2_W_-82" vertex="1">
          <mxGeometry y="278" width="350" height="26" as="geometry" />
        </mxCell>
        <mxCell id="uS8OOOCSnNwOLfQj2_W_-115" value="ListaPedidos" style="swimlane;fontStyle=0;align=center;verticalAlign=top;childLayout=stackLayout;horizontal=1;startSize=26;horizontalStack=0;resizeParent=1;resizeLast=0;collapsible=1;marginBottom=0;rounded=0;shadow=0;strokeWidth=1;fillColor=#1ba1e2;fontColor=#000000;strokeColor=#006EAF;" parent="WIyWlLk6GJQsqaUBKTNV-1" vertex="1">
          <mxGeometry x="1790" y="120" width="510" height="390" as="geometry">
            <mxRectangle x="130" y="380" width="160" height="26" as="alternateBounds" />
          </mxGeometry>
        </mxCell>
        <mxCell id="uS8OOOCSnNwOLfQj2_W_-116" value="- con : Conexao&#xa;" style="text;align=left;verticalAlign=top;spacingLeft=4;spacingRight=4;overflow=hidden;rotatable=0;points=[[0,0.5],[1,0.5]];portConstraint=eastwest;" parent="uS8OOOCSnNwOLfQj2_W_-115" vertex="1">
          <mxGeometry y="26" width="510" height="26" as="geometry" />
        </mxCell>
        <mxCell id="uS8OOOCSnNwOLfQj2_W_-117" value="- schema : String&#xa;&#xa;" style="text;align=left;verticalAlign=top;spacingLeft=4;spacingRight=4;overflow=hidden;rotatable=0;points=[[0,0.5],[1,0.5]];portConstraint=eastwest;rounded=0;shadow=0;html=0;" parent="uS8OOOCSnNwOLfQj2_W_-115" vertex="1">
          <mxGeometry y="52" width="510" height="28" as="geometry" />
        </mxCell>
        <mxCell id="uS8OOOCSnNwOLfQj2_W_-127" value="+ listapedidos : Pedido [ ]&#xa;&#xa;" style="text;align=left;verticalAlign=top;spacingLeft=4;spacingRight=4;overflow=hidden;rotatable=0;points=[[0,0.5],[1,0.5]];portConstraint=eastwest;" parent="uS8OOOCSnNwOLfQj2_W_-115" vertex="1">
          <mxGeometry y="80" width="510" height="28" as="geometry" />
        </mxCell>
        <mxCell id="uS8OOOCSnNwOLfQj2_W_-118" value="+ listaCarrinho : ProdutoCarrinho [ ]&#xa;&#xa;" style="text;align=left;verticalAlign=top;spacingLeft=4;spacingRight=4;overflow=hidden;rotatable=0;points=[[0,0.5],[1,0.5]];portConstraint=eastwest;" parent="uS8OOOCSnNwOLfQj2_W_-115" vertex="1">
          <mxGeometry y="108" width="510" height="26" as="geometry" />
        </mxCell>
        <mxCell id="uS8OOOCSnNwOLfQj2_W_-119" value="" style="line;html=1;strokeWidth=1;align=left;verticalAlign=middle;spacingTop=-1;spacingLeft=3;spacingRight=3;rotatable=0;labelPosition=right;points=[];portConstraint=eastwest;" parent="uS8OOOCSnNwOLfQj2_W_-115" vertex="1">
          <mxGeometry y="134" width="510" height="16" as="geometry" />
        </mxCell>
        <mxCell id="uS8OOOCSnNwOLfQj2_W_-120" value="+ ListaPedidos (Conexao con, string schema, int i)&#xa;" style="text;align=left;verticalAlign=top;spacingLeft=4;spacingRight=4;overflow=hidden;rotatable=0;points=[[0,0.5],[1,0.5]];portConstraint=eastwest;" parent="uS8OOOCSnNwOLfQj2_W_-115" vertex="1">
          <mxGeometry y="150" width="510" height="26" as="geometry" />
        </mxCell>
        <mxCell id="uS8OOOCSnNwOLfQj2_W_-121" value="+ getListapedidos ()                                                                                            : Pedido [ ]" style="text;align=left;verticalAlign=top;spacingLeft=4;spacingRight=4;overflow=hidden;rotatable=0;points=[[0,0.5],[1,0.5]];portConstraint=eastwest;" parent="uS8OOOCSnNwOLfQj2_W_-115" vertex="1">
          <mxGeometry y="176" width="510" height="26" as="geometry" />
        </mxCell>
        <mxCell id="uS8OOOCSnNwOLfQj2_W_-122" value="+ getListaCarrinho (int idCliente)                                                                     : ProdutoCarrinho [ ]&#xa;" style="text;align=left;verticalAlign=top;spacingLeft=4;spacingRight=4;overflow=hidden;rotatable=0;points=[[0,0.5],[1,0.5]];portConstraint=eastwest;" parent="uS8OOOCSnNwOLfQj2_W_-115" vertex="1">
          <mxGeometry y="202" width="510" height="26" as="geometry" />
        </mxCell>
        <mxCell id="uS8OOOCSnNwOLfQj2_W_-123" value="+setListaCarrinho (ArrayList &lt;ProdutoCarrinho&gt; listacarrinho)                : void&#xa;" style="text;align=left;verticalAlign=top;spacingLeft=4;spacingRight=4;overflow=hidden;rotatable=0;points=[[0,0.5],[1,0.5]];portConstraint=eastwest;" parent="uS8OOOCSnNwOLfQj2_W_-115" vertex="1">
          <mxGeometry y="228" width="510" height="26" as="geometry" />
        </mxCell>
        <mxCell id="uS8OOOCSnNwOLfQj2_W_-124" value="+ setListapedidos (ArrayList &lt;Pedido&gt; listapedidos)                                 : void&#xa;" style="text;align=left;verticalAlign=top;spacingLeft=4;spacingRight=4;overflow=hidden;rotatable=0;points=[[0,0.5],[1,0.5]];portConstraint=eastwest;" parent="uS8OOOCSnNwOLfQj2_W_-115" vertex="1">
          <mxGeometry y="254" width="510" height="26" as="geometry" />
        </mxCell>
        <mxCell id="uS8OOOCSnNwOLfQj2_W_-125" value="+ carregarListaPedidos ()                                                                                 : void]&#xa;" style="text;align=left;verticalAlign=top;spacingLeft=4;spacingRight=4;overflow=hidden;rotatable=0;points=[[0,0.5],[1,0.5]];portConstraint=eastwest;" parent="uS8OOOCSnNwOLfQj2_W_-115" vertex="1">
          <mxGeometry y="280" width="510" height="26" as="geometry" />
        </mxCell>
        <mxCell id="uS8OOOCSnNwOLfQj2_W_-130" value="+ carregarListaPedidosCarrinho ()                                                                 : void&#xa;" style="text;align=left;verticalAlign=top;spacingLeft=4;spacingRight=4;overflow=hidden;rotatable=0;points=[[0,0.5],[1,0.5]];portConstraint=eastwest;" parent="uS8OOOCSnNwOLfQj2_W_-115" vertex="1">
          <mxGeometry y="306" width="510" height="26" as="geometry" />
        </mxCell>
        <mxCell id="uS8OOOCSnNwOLfQj2_W_-126" value="+ dadosCarrinho (Result tabela)                                                                     : ProdutoCarrinho&#xa;" style="text;align=left;verticalAlign=top;spacingLeft=4;spacingRight=4;overflow=hidden;rotatable=0;points=[[0,0.5],[1,0.5]];portConstraint=eastwest;" parent="uS8OOOCSnNwOLfQj2_W_-115" vertex="1">
          <mxGeometry y="332" width="510" height="26" as="geometry" />
        </mxCell>
        <mxCell id="uS8OOOCSnNwOLfQj2_W_-128" value="+ dadosPedido (Result tabela)                                                                        : Pedido&#xa;" style="text;align=left;verticalAlign=top;spacingLeft=4;spacingRight=4;overflow=hidden;rotatable=0;points=[[0,0.5],[1,0.5]];portConstraint=eastwest;" parent="uS8OOOCSnNwOLfQj2_W_-115" vertex="1">
          <mxGeometry y="358" width="510" height="26" as="geometry" />
        </mxCell>
        <mxCell id="uS8OOOCSnNwOLfQj2_W_-131" value="ListaProdutos" style="swimlane;fontStyle=0;align=center;verticalAlign=top;childLayout=stackLayout;horizontal=1;startSize=26;horizontalStack=0;resizeParent=1;resizeLast=0;collapsible=1;marginBottom=0;rounded=0;shadow=0;strokeWidth=1;fontColor=#ffffff;fillColor=#1ba1e2;strokeColor=#006EAF;" parent="WIyWlLk6GJQsqaUBKTNV-1" vertex="1">
          <mxGeometry x="1760" y="-460" width="510" height="420" as="geometry">
            <mxRectangle x="130" y="380" width="160" height="26" as="alternateBounds" />
          </mxGeometry>
        </mxCell>
        <mxCell id="uS8OOOCSnNwOLfQj2_W_-132" value="- con : Conexao&#xa;" style="text;align=left;verticalAlign=top;spacingLeft=4;spacingRight=4;overflow=hidden;rotatable=0;points=[[0,0.5],[1,0.5]];portConstraint=eastwest;" parent="uS8OOOCSnNwOLfQj2_W_-131" vertex="1">
          <mxGeometry y="26" width="510" height="26" as="geometry" />
        </mxCell>
        <mxCell id="uS8OOOCSnNwOLfQj2_W_-133" value="- schema : String&#xa;&#xa;" style="text;align=left;verticalAlign=top;spacingLeft=4;spacingRight=4;overflow=hidden;rotatable=0;points=[[0,0.5],[1,0.5]];portConstraint=eastwest;rounded=0;shadow=0;html=0;" parent="uS8OOOCSnNwOLfQj2_W_-131" vertex="1">
          <mxGeometry y="52" width="510" height="28" as="geometry" />
        </mxCell>
        <mxCell id="uS8OOOCSnNwOLfQj2_W_-135" value="- listaProdutos : Produto [ ]&#xa;&#xa;" style="text;align=left;verticalAlign=top;spacingLeft=4;spacingRight=4;overflow=hidden;rotatable=0;points=[[0,0.5],[1,0.5]];portConstraint=eastwest;" parent="uS8OOOCSnNwOLfQj2_W_-131" vertex="1">
          <mxGeometry y="80" width="510" height="26" as="geometry" />
        </mxCell>
        <mxCell id="uS8OOOCSnNwOLfQj2_W_-136" value="" style="line;html=1;strokeWidth=1;align=left;verticalAlign=middle;spacingTop=-1;spacingLeft=3;spacingRight=3;rotatable=0;labelPosition=right;points=[];portConstraint=eastwest;" parent="uS8OOOCSnNwOLfQj2_W_-131" vertex="1">
          <mxGeometry y="106" width="510" height="16" as="geometry" />
        </mxCell>
        <mxCell id="uS8OOOCSnNwOLfQj2_W_-137" value="+ ListaProdutos (Conexao con, string schema)&#xa;" style="text;align=left;verticalAlign=top;spacingLeft=4;spacingRight=4;overflow=hidden;rotatable=0;points=[[0,0.5],[1,0.5]];portConstraint=eastwest;" parent="uS8OOOCSnNwOLfQj2_W_-131" vertex="1">
          <mxGeometry y="122" width="510" height="26" as="geometry" />
        </mxCell>
        <mxCell id="uS8OOOCSnNwOLfQj2_W_-138" value="+ adicionarProdutoLista (Produto prod)                                                         : void]&#xa;" style="text;align=left;verticalAlign=top;spacingLeft=4;spacingRight=4;overflow=hidden;rotatable=0;points=[[0,0.5],[1,0.5]];portConstraint=eastwest;" parent="uS8OOOCSnNwOLfQj2_W_-131" vertex="1">
          <mxGeometry y="148" width="510" height="26" as="geometry" />
        </mxCell>
        <mxCell id="uS8OOOCSnNwOLfQj2_W_-139" value="+ localizarProduto (String NomeProduto)                                                      : Produto&#xa;" style="text;align=left;verticalAlign=top;spacingLeft=4;spacingRight=4;overflow=hidden;rotatable=0;points=[[0,0.5],[1,0.5]];portConstraint=eastwest;" parent="uS8OOOCSnNwOLfQj2_W_-131" vertex="1">
          <mxGeometry y="174" width="510" height="26" as="geometry" />
        </mxCell>
        <mxCell id="uS8OOOCSnNwOLfQj2_W_-140" value="+carregarListaProdutos ()                                                                                 : void&#xa;" style="text;align=left;verticalAlign=top;spacingLeft=4;spacingRight=4;overflow=hidden;rotatable=0;points=[[0,0.5],[1,0.5]];portConstraint=eastwest;" parent="uS8OOOCSnNwOLfQj2_W_-131" vertex="1">
          <mxGeometry y="200" width="510" height="26" as="geometry" />
        </mxCell>
        <mxCell id="uS8OOOCSnNwOLfQj2_W_-141" value="+ dadosProduto (Resultset tabela)                                                                 : Produto&#xa;" style="text;align=left;verticalAlign=top;spacingLeft=4;spacingRight=4;overflow=hidden;rotatable=0;points=[[0,0.5],[1,0.5]];portConstraint=eastwest;" parent="uS8OOOCSnNwOLfQj2_W_-131" vertex="1">
          <mxGeometry y="226" width="510" height="26" as="geometry" />
        </mxCell>
        <mxCell id="uS8OOOCSnNwOLfQj2_W_-142" value="+ getCon ()                                                                                                           : Conexao&#xa;" style="text;align=left;verticalAlign=top;spacingLeft=4;spacingRight=4;overflow=hidden;rotatable=0;points=[[0,0.5],[1,0.5]];portConstraint=eastwest;" parent="uS8OOOCSnNwOLfQj2_W_-131" vertex="1">
          <mxGeometry y="252" width="510" height="26" as="geometry" />
        </mxCell>
        <mxCell id="uS8OOOCSnNwOLfQj2_W_-143" value="+setCon ()                                                                                                            : void&#xa;" style="text;align=left;verticalAlign=top;spacingLeft=4;spacingRight=4;overflow=hidden;rotatable=0;points=[[0,0.5],[1,0.5]];portConstraint=eastwest;" parent="uS8OOOCSnNwOLfQj2_W_-131" vertex="1">
          <mxGeometry y="278" width="510" height="26" as="geometry" />
        </mxCell>
        <mxCell id="uS8OOOCSnNwOLfQj2_W_-144" value="+ getSchema ()                                                                                                    : String&#xa;" style="text;align=left;verticalAlign=top;spacingLeft=4;spacingRight=4;overflow=hidden;rotatable=0;points=[[0,0.5],[1,0.5]];portConstraint=eastwest;" parent="uS8OOOCSnNwOLfQj2_W_-131" vertex="1">
          <mxGeometry y="304" width="510" height="26" as="geometry" />
        </mxCell>
        <mxCell id="uS8OOOCSnNwOLfQj2_W_-145" value="+ setSchema (String schema)                                                                         : void&#xa;" style="text;align=left;verticalAlign=top;spacingLeft=4;spacingRight=4;overflow=hidden;rotatable=0;points=[[0,0.5],[1,0.5]];portConstraint=eastwest;" parent="uS8OOOCSnNwOLfQj2_W_-131" vertex="1">
          <mxGeometry y="330" width="510" height="26" as="geometry" />
        </mxCell>
        <mxCell id="uS8OOOCSnNwOLfQj2_W_-146" value="+ getListaProdutos ()                                                                                         : Produto [ ]&#xa;" style="text;align=left;verticalAlign=top;spacingLeft=4;spacingRight=4;overflow=hidden;rotatable=0;points=[[0,0.5],[1,0.5]];portConstraint=eastwest;" parent="uS8OOOCSnNwOLfQj2_W_-131" vertex="1">
          <mxGeometry y="356" width="510" height="26" as="geometry" />
        </mxCell>
        <mxCell id="uS8OOOCSnNwOLfQj2_W_-147" value="+ setListaProdutos (ArrayList &lt;Produto&gt; listaProdutos)                            : void&#xa;" style="text;align=left;verticalAlign=top;spacingLeft=4;spacingRight=4;overflow=hidden;rotatable=0;points=[[0,0.5],[1,0.5]];portConstraint=eastwest;" parent="uS8OOOCSnNwOLfQj2_W_-131" vertex="1">
          <mxGeometry y="382" width="510" height="26" as="geometry" />
        </mxCell>
        <mxCell id="uS8OOOCSnNwOLfQj2_W_-148" value="Pedido" style="swimlane;fontStyle=0;align=center;verticalAlign=top;childLayout=stackLayout;horizontal=1;startSize=26;horizontalStack=0;resizeParent=1;resizeLast=0;collapsible=1;marginBottom=0;rounded=0;shadow=0;strokeWidth=1;fontColor=#ffffff;fillColor=#1ba1e2;strokeColor=#006EAF;" parent="WIyWlLk6GJQsqaUBKTNV-1" vertex="1">
          <mxGeometry x="1850" y="610" width="390" height="470" as="geometry">
            <mxRectangle x="130" y="380" width="160" height="26" as="alternateBounds" />
          </mxGeometry>
        </mxCell>
        <mxCell id="uS8OOOCSnNwOLfQj2_W_-149" value="- idpedido : int&#xa;" style="text;align=left;verticalAlign=top;spacingLeft=4;spacingRight=4;overflow=hidden;rotatable=0;points=[[0,0.5],[1,0.5]];portConstraint=eastwest;" parent="uS8OOOCSnNwOLfQj2_W_-148" vertex="1">
          <mxGeometry y="26" width="390" height="26" as="geometry" />
        </mxCell>
        <mxCell id="uS8OOOCSnNwOLfQj2_W_-150" value="- dt_emissao : LocalDate&#xa;&#xa;&#xa;" style="text;align=left;verticalAlign=top;spacingLeft=4;spacingRight=4;overflow=hidden;rotatable=0;points=[[0,0.5],[1,0.5]];portConstraint=eastwest;rounded=0;shadow=0;html=0;" parent="uS8OOOCSnNwOLfQj2_W_-148" vertex="1">
          <mxGeometry y="52" width="390" height="28" as="geometry" />
        </mxCell>
        <mxCell id="uS8OOOCSnNwOLfQj2_W_-151" value="-  idcliente : int&#xa;" style="text;align=left;verticalAlign=top;spacingLeft=4;spacingRight=4;overflow=hidden;rotatable=0;points=[[0,0.5],[1,0.5]];portConstraint=eastwest;" parent="uS8OOOCSnNwOLfQj2_W_-148" vertex="1">
          <mxGeometry y="80" width="390" height="26" as="geometry" />
        </mxCell>
        <mxCell id="uS8OOOCSnNwOLfQj2_W_-160" value="-  cliente : Cliente" style="text;align=left;verticalAlign=top;spacingLeft=4;spacingRight=4;overflow=hidden;rotatable=0;points=[[0,0.5],[1,0.5]];portConstraint=eastwest;" parent="uS8OOOCSnNwOLfQj2_W_-148" vertex="1">
          <mxGeometry y="106" width="390" height="26" as="geometry" />
        </mxCell>
        <mxCell id="uS8OOOCSnNwOLfQj2_W_-161" value="-  pedidoitem : Produto [ ]&#xa;&#xa;" style="text;align=left;verticalAlign=top;spacingLeft=4;spacingRight=4;overflow=hidden;rotatable=0;points=[[0,0.5],[1,0.5]];portConstraint=eastwest;" parent="uS8OOOCSnNwOLfQj2_W_-148" vertex="1">
          <mxGeometry y="132" width="390" height="26" as="geometry" />
        </mxCell>
        <mxCell id="uS8OOOCSnNwOLfQj2_W_-152" value="" style="line;html=1;strokeWidth=1;align=left;verticalAlign=middle;spacingTop=-1;spacingLeft=3;spacingRight=3;rotatable=0;labelPosition=right;points=[];portConstraint=eastwest;" parent="uS8OOOCSnNwOLfQj2_W_-148" vertex="1">
          <mxGeometry y="158" width="390" height="16" as="geometry" />
        </mxCell>
        <mxCell id="uS8OOOCSnNwOLfQj2_W_-153" value="+ dadosPedidos (Pedido pd)                                          : void&#xa;" style="text;align=left;verticalAlign=top;spacingLeft=4;spacingRight=4;overflow=hidden;rotatable=0;points=[[0,0.5],[1,0.5]];portConstraint=eastwest;" parent="uS8OOOCSnNwOLfQj2_W_-148" vertex="1">
          <mxGeometry y="174" width="390" height="26" as="geometry" />
        </mxCell>
        <mxCell id="uS8OOOCSnNwOLfQj2_W_-154" value="+ getIdpedido (Cliente c)                                                  : int&#xa;" style="text;align=left;verticalAlign=top;spacingLeft=4;spacingRight=4;overflow=hidden;rotatable=0;points=[[0,0.5],[1,0.5]];portConstraint=eastwest;" parent="uS8OOOCSnNwOLfQj2_W_-148" vertex="1">
          <mxGeometry y="200" width="390" height="26" as="geometry" />
        </mxCell>
        <mxCell id="uS8OOOCSnNwOLfQj2_W_-155" value="+ setIdpedido (int idpedido)                                             : void&#xa;" style="text;align=left;verticalAlign=top;spacingLeft=4;spacingRight=4;overflow=hidden;rotatable=0;points=[[0,0.5],[1,0.5]];portConstraint=eastwest;" parent="uS8OOOCSnNwOLfQj2_W_-148" vertex="1">
          <mxGeometry y="226" width="390" height="26" as="geometry" />
        </mxCell>
        <mxCell id="uS8OOOCSnNwOLfQj2_W_-156" value="+ getDt_emissao ()                                                           : LocalDate&#xa;" style="text;align=left;verticalAlign=top;spacingLeft=4;spacingRight=4;overflow=hidden;rotatable=0;points=[[0,0.5],[1,0.5]];portConstraint=eastwest;" parent="uS8OOOCSnNwOLfQj2_W_-148" vertex="1">
          <mxGeometry y="252" width="390" height="26" as="geometry" />
        </mxCell>
        <mxCell id="uS8OOOCSnNwOLfQj2_W_-157" value="+ setDt_emissao (LocalDate dt_emissao)                    : void&#xa;" style="text;align=left;verticalAlign=top;spacingLeft=4;spacingRight=4;overflow=hidden;rotatable=0;points=[[0,0.5],[1,0.5]];portConstraint=eastwest;" parent="uS8OOOCSnNwOLfQj2_W_-148" vertex="1">
          <mxGeometry y="278" width="390" height="26" as="geometry" />
        </mxCell>
        <mxCell id="uS8OOOCSnNwOLfQj2_W_-158" value="+ getIdcliente ()                                                                  : int&#xa;" style="text;align=left;verticalAlign=top;spacingLeft=4;spacingRight=4;overflow=hidden;rotatable=0;points=[[0,0.5],[1,0.5]];portConstraint=eastwest;" parent="uS8OOOCSnNwOLfQj2_W_-148" vertex="1">
          <mxGeometry y="304" width="390" height="26" as="geometry" />
        </mxCell>
        <mxCell id="uS8OOOCSnNwOLfQj2_W_-159" value="+ setIdcliente (int idcliente)                                               : void&#xa;" style="text;align=left;verticalAlign=top;spacingLeft=4;spacingRight=4;overflow=hidden;rotatable=0;points=[[0,0.5],[1,0.5]];portConstraint=eastwest;" parent="uS8OOOCSnNwOLfQj2_W_-148" vertex="1">
          <mxGeometry y="330" width="390" height="26" as="geometry" />
        </mxCell>
        <mxCell id="uS8OOOCSnNwOLfQj2_W_-162" value="+ getPedidoitem ()                                                            : Produto [ ]&#xa;" style="text;align=left;verticalAlign=top;spacingLeft=4;spacingRight=4;overflow=hidden;rotatable=0;points=[[0,0.5],[1,0.5]];portConstraint=eastwest;" parent="uS8OOOCSnNwOLfQj2_W_-148" vertex="1">
          <mxGeometry y="356" width="390" height="26" as="geometry" />
        </mxCell>
        <mxCell id="uS8OOOCSnNwOLfQj2_W_-163" value="+ setPedidoitem (ArrayList &lt;Produto&gt; pedidoitem)     : void&#xa;" style="text;align=left;verticalAlign=top;spacingLeft=4;spacingRight=4;overflow=hidden;rotatable=0;points=[[0,0.5],[1,0.5]];portConstraint=eastwest;" parent="uS8OOOCSnNwOLfQj2_W_-148" vertex="1">
          <mxGeometry y="382" width="390" height="26" as="geometry" />
        </mxCell>
        <mxCell id="uS8OOOCSnNwOLfQj2_W_-164" value="+ getCliente ()                                                                    : Cliente&#xa;" style="text;align=left;verticalAlign=top;spacingLeft=4;spacingRight=4;overflow=hidden;rotatable=0;points=[[0,0.5],[1,0.5]];portConstraint=eastwest;" parent="uS8OOOCSnNwOLfQj2_W_-148" vertex="1">
          <mxGeometry y="408" width="390" height="26" as="geometry" />
        </mxCell>
        <mxCell id="uS8OOOCSnNwOLfQj2_W_-165" value="+ setCliente (Cliente cliente)                                            : void&#xa;" style="text;align=left;verticalAlign=top;spacingLeft=4;spacingRight=4;overflow=hidden;rotatable=0;points=[[0,0.5],[1,0.5]];portConstraint=eastwest;" parent="uS8OOOCSnNwOLfQj2_W_-148" vertex="1">
          <mxGeometry y="434" width="390" height="26" as="geometry" />
        </mxCell>
        <mxCell id="uS8OOOCSnNwOLfQj2_W_-166" value="PedidoItem" style="swimlane;fontStyle=0;align=center;verticalAlign=top;childLayout=stackLayout;horizontal=1;startSize=26;horizontalStack=0;resizeParent=1;resizeLast=0;collapsible=1;marginBottom=0;rounded=0;shadow=0;strokeWidth=1;fillColor=#1ba1e2;fontColor=#000000;strokeColor=#006EAF;" parent="WIyWlLk6GJQsqaUBKTNV-1" vertex="1">
          <mxGeometry x="2435" y="585" width="390" height="550" as="geometry">
            <mxRectangle x="130" y="380" width="160" height="26" as="alternateBounds" />
          </mxGeometry>
        </mxCell>
        <mxCell id="uS8OOOCSnNwOLfQj2_W_-167" value="- idpedido_item : int&#xa;" style="text;align=left;verticalAlign=top;spacingLeft=4;spacingRight=4;overflow=hidden;rotatable=0;points=[[0,0.5],[1,0.5]];portConstraint=eastwest;" parent="uS8OOOCSnNwOLfQj2_W_-166" vertex="1">
          <mxGeometry y="26" width="390" height="26" as="geometry" />
        </mxCell>
        <mxCell id="uS8OOOCSnNwOLfQj2_W_-169" value="- idproduto : int&#xa;" style="text;align=left;verticalAlign=top;spacingLeft=4;spacingRight=4;overflow=hidden;rotatable=0;points=[[0,0.5],[1,0.5]];portConstraint=eastwest;" parent="uS8OOOCSnNwOLfQj2_W_-166" vertex="1">
          <mxGeometry y="52" width="390" height="26" as="geometry" />
        </mxCell>
        <mxCell id="uS8OOOCSnNwOLfQj2_W_-168" value="- idpedido : int&#xa;" style="text;align=left;verticalAlign=top;spacingLeft=4;spacingRight=4;overflow=hidden;rotatable=0;points=[[0,0.5],[1,0.5]];portConstraint=eastwest;rounded=0;shadow=0;html=0;" parent="uS8OOOCSnNwOLfQj2_W_-166" vertex="1">
          <mxGeometry y="78" width="390" height="28" as="geometry" />
        </mxCell>
        <mxCell id="uS8OOOCSnNwOLfQj2_W_-170" value="- quantidade : int&#xa;" style="text;align=left;verticalAlign=top;spacingLeft=4;spacingRight=4;overflow=hidden;rotatable=0;points=[[0,0.5],[1,0.5]];portConstraint=eastwest;" parent="uS8OOOCSnNwOLfQj2_W_-166" vertex="1">
          <mxGeometry y="106" width="390" height="26" as="geometry" />
        </mxCell>
        <mxCell id="uS8OOOCSnNwOLfQj2_W_-185" value="- produto : Produto" style="text;align=left;verticalAlign=top;spacingLeft=4;spacingRight=4;overflow=hidden;rotatable=0;points=[[0,0.5],[1,0.5]];portConstraint=eastwest;" parent="uS8OOOCSnNwOLfQj2_W_-166" vertex="1">
          <mxGeometry y="132" width="390" height="26" as="geometry" />
        </mxCell>
        <mxCell id="uS8OOOCSnNwOLfQj2_W_-184" value="- pedido : Pedido&#xa;" style="text;align=left;verticalAlign=top;spacingLeft=4;spacingRight=4;overflow=hidden;rotatable=0;points=[[0,0.5],[1,0.5]];portConstraint=eastwest;" parent="uS8OOOCSnNwOLfQj2_W_-166" vertex="1">
          <mxGeometry y="158" width="390" height="26" as="geometry" />
        </mxCell>
        <mxCell id="uS8OOOCSnNwOLfQj2_W_-172" value="" style="line;html=1;strokeWidth=1;align=left;verticalAlign=middle;spacingTop=-1;spacingLeft=3;spacingRight=3;rotatable=0;labelPosition=right;points=[];portConstraint=eastwest;" parent="uS8OOOCSnNwOLfQj2_W_-166" vertex="1">
          <mxGeometry y="184" width="390" height="16" as="geometry" />
        </mxCell>
        <mxCell id="uS8OOOCSnNwOLfQj2_W_-173" value="+ criarPedidoItem (int qtd)                                               : boolean&#xa;" style="text;align=left;verticalAlign=top;spacingLeft=4;spacingRight=4;overflow=hidden;rotatable=0;points=[[0,0.5],[1,0.5]];portConstraint=eastwest;" parent="uS8OOOCSnNwOLfQj2_W_-166" vertex="1">
          <mxGeometry y="200" width="390" height="26" as="geometry" />
        </mxCell>
        <mxCell id="uS8OOOCSnNwOLfQj2_W_-174" value="+ getIdpedido_item ()                                                       : int&#xa;" style="text;align=left;verticalAlign=top;spacingLeft=4;spacingRight=4;overflow=hidden;rotatable=0;points=[[0,0.5],[1,0.5]];portConstraint=eastwest;" parent="uS8OOOCSnNwOLfQj2_W_-166" vertex="1">
          <mxGeometry y="226" width="390" height="26" as="geometry" />
        </mxCell>
        <mxCell id="uS8OOOCSnNwOLfQj2_W_-175" value="+ setIdpedido_item (int idpedido_item)                         : void&#xa;" style="text;align=left;verticalAlign=top;spacingLeft=4;spacingRight=4;overflow=hidden;rotatable=0;points=[[0,0.5],[1,0.5]];portConstraint=eastwest;" parent="uS8OOOCSnNwOLfQj2_W_-166" vertex="1">
          <mxGeometry y="252" width="390" height="26" as="geometry" />
        </mxCell>
        <mxCell id="uS8OOOCSnNwOLfQj2_W_-176" value="+ getPedido ()                                                                   : Pedido&#xa;" style="text;align=left;verticalAlign=top;spacingLeft=4;spacingRight=4;overflow=hidden;rotatable=0;points=[[0,0.5],[1,0.5]];portConstraint=eastwest;" parent="uS8OOOCSnNwOLfQj2_W_-166" vertex="1">
          <mxGeometry y="278" width="390" height="26" as="geometry" />
        </mxCell>
        <mxCell id="uS8OOOCSnNwOLfQj2_W_-177" value="+ setPedido (Pedido pedido)                                          : void&#xa;" style="text;align=left;verticalAlign=top;spacingLeft=4;spacingRight=4;overflow=hidden;rotatable=0;points=[[0,0.5],[1,0.5]];portConstraint=eastwest;" parent="uS8OOOCSnNwOLfQj2_W_-166" vertex="1">
          <mxGeometry y="304" width="390" height="26" as="geometry" />
        </mxCell>
        <mxCell id="uS8OOOCSnNwOLfQj2_W_-178" value="+ getProduto ()                                                                  : Produto&#xa;" style="text;align=left;verticalAlign=top;spacingLeft=4;spacingRight=4;overflow=hidden;rotatable=0;points=[[0,0.5],[1,0.5]];portConstraint=eastwest;" parent="uS8OOOCSnNwOLfQj2_W_-166" vertex="1">
          <mxGeometry y="330" width="390" height="26" as="geometry" />
        </mxCell>
        <mxCell id="uS8OOOCSnNwOLfQj2_W_-179" value="+ setProduto (Produto produto)                                      : void&#xa;" style="text;align=left;verticalAlign=top;spacingLeft=4;spacingRight=4;overflow=hidden;rotatable=0;points=[[0,0.5],[1,0.5]];portConstraint=eastwest;" parent="uS8OOOCSnNwOLfQj2_W_-166" vertex="1">
          <mxGeometry y="356" width="390" height="26" as="geometry" />
        </mxCell>
        <mxCell id="uS8OOOCSnNwOLfQj2_W_-180" value="+ getIdpedido ()                                                                 : int&#xa;" style="text;align=left;verticalAlign=top;spacingLeft=4;spacingRight=4;overflow=hidden;rotatable=0;points=[[0,0.5],[1,0.5]];portConstraint=eastwest;" parent="uS8OOOCSnNwOLfQj2_W_-166" vertex="1">
          <mxGeometry y="382" width="390" height="26" as="geometry" />
        </mxCell>
        <mxCell id="uS8OOOCSnNwOLfQj2_W_-181" value="+ setIdpedido (int idpedido)                                            : void&#xa;" style="text;align=left;verticalAlign=top;spacingLeft=4;spacingRight=4;overflow=hidden;rotatable=0;points=[[0,0.5],[1,0.5]];portConstraint=eastwest;" parent="uS8OOOCSnNwOLfQj2_W_-166" vertex="1">
          <mxGeometry y="408" width="390" height="26" as="geometry" />
        </mxCell>
        <mxCell id="uS8OOOCSnNwOLfQj2_W_-182" value="+ getIdproduto ()                                                               : int&#xa;" style="text;align=left;verticalAlign=top;spacingLeft=4;spacingRight=4;overflow=hidden;rotatable=0;points=[[0,0.5],[1,0.5]];portConstraint=eastwest;" parent="uS8OOOCSnNwOLfQj2_W_-166" vertex="1">
          <mxGeometry y="434" width="390" height="26" as="geometry" />
        </mxCell>
        <mxCell id="uS8OOOCSnNwOLfQj2_W_-183" value="+ setIdproduto (int idproduto)                                          : void&#xa;" style="text;align=left;verticalAlign=top;spacingLeft=4;spacingRight=4;overflow=hidden;rotatable=0;points=[[0,0.5],[1,0.5]];portConstraint=eastwest;" parent="uS8OOOCSnNwOLfQj2_W_-166" vertex="1">
          <mxGeometry y="460" width="390" height="26" as="geometry" />
        </mxCell>
        <mxCell id="uS8OOOCSnNwOLfQj2_W_-186" value="+ getQuantidade ()                                                            : int&#xa;" style="text;align=left;verticalAlign=top;spacingLeft=4;spacingRight=4;overflow=hidden;rotatable=0;points=[[0,0.5],[1,0.5]];portConstraint=eastwest;" parent="uS8OOOCSnNwOLfQj2_W_-166" vertex="1">
          <mxGeometry y="486" width="390" height="26" as="geometry" />
        </mxCell>
        <mxCell id="uS8OOOCSnNwOLfQj2_W_-187" value="+ setQuantidade (int quantidade)                                   : void&#xa;" style="text;align=left;verticalAlign=top;spacingLeft=4;spacingRight=4;overflow=hidden;rotatable=0;points=[[0,0.5],[1,0.5]];portConstraint=eastwest;" parent="uS8OOOCSnNwOLfQj2_W_-166" vertex="1">
          <mxGeometry y="512" width="390" height="26" as="geometry" />
        </mxCell>
        <mxCell id="uS8OOOCSnNwOLfQj2_W_-188" value="Pessoa" style="swimlane;fontStyle=0;align=center;verticalAlign=top;childLayout=stackLayout;horizontal=1;startSize=26;horizontalStack=0;resizeParent=1;resizeLast=0;collapsible=1;marginBottom=0;rounded=0;shadow=0;strokeWidth=1;fillColor=#1ba1e2;fontColor=#000000;strokeColor=#006EAF;" parent="WIyWlLk6GJQsqaUBKTNV-1" vertex="1">
          <mxGeometry x="-270" y="-260" width="440" height="290" as="geometry">
            <mxRectangle x="130" y="380" width="160" height="26" as="alternateBounds" />
          </mxGeometry>
        </mxCell>
        <mxCell id="uS8OOOCSnNwOLfQj2_W_-189" value="- nome : String&#xa;" style="text;align=left;verticalAlign=top;spacingLeft=4;spacingRight=4;overflow=hidden;rotatable=0;points=[[0,0.5],[1,0.5]];portConstraint=eastwest;" parent="uS8OOOCSnNwOLfQj2_W_-188" vertex="1">
          <mxGeometry y="26" width="440" height="26" as="geometry" />
        </mxCell>
        <mxCell id="uS8OOOCSnNwOLfQj2_W_-190" value="- cpf : String&#xa;" style="text;align=left;verticalAlign=top;spacingLeft=4;spacingRight=4;overflow=hidden;rotatable=0;points=[[0,0.5],[1,0.5]];portConstraint=eastwest;rounded=0;shadow=0;html=0;" parent="uS8OOOCSnNwOLfQj2_W_-188" vertex="1">
          <mxGeometry y="52" width="440" height="28" as="geometry" />
        </mxCell>
        <mxCell id="uS8OOOCSnNwOLfQj2_W_-191" value="- dt_nascimento : LocalDate&#xa;&#xa;" style="text;align=left;verticalAlign=top;spacingLeft=4;spacingRight=4;overflow=hidden;rotatable=0;points=[[0,0.5],[1,0.5]];portConstraint=eastwest;" parent="uS8OOOCSnNwOLfQj2_W_-188" vertex="1">
          <mxGeometry y="80" width="440" height="26" as="geometry" />
        </mxCell>
        <mxCell id="uS8OOOCSnNwOLfQj2_W_-195" value="" style="line;html=1;strokeWidth=1;align=left;verticalAlign=middle;spacingTop=-1;spacingLeft=3;spacingRight=3;rotatable=0;labelPosition=right;points=[];portConstraint=eastwest;" parent="uS8OOOCSnNwOLfQj2_W_-188" vertex="1">
          <mxGeometry y="106" width="440" height="16" as="geometry" />
        </mxCell>
        <mxCell id="uS8OOOCSnNwOLfQj2_W_-196" value="+ getNome ()                                                                           : String&#xa;" style="text;align=left;verticalAlign=top;spacingLeft=4;spacingRight=4;overflow=hidden;rotatable=0;points=[[0,0.5],[1,0.5]];portConstraint=eastwest;" parent="uS8OOOCSnNwOLfQj2_W_-188" vertex="1">
          <mxGeometry y="122" width="440" height="26" as="geometry" />
        </mxCell>
        <mxCell id="uS8OOOCSnNwOLfQj2_W_-197" value="+ setNome (String nome)                                                      : void&#xa;" style="text;align=left;verticalAlign=top;spacingLeft=4;spacingRight=4;overflow=hidden;rotatable=0;points=[[0,0.5],[1,0.5]];portConstraint=eastwest;" parent="uS8OOOCSnNwOLfQj2_W_-188" vertex="1">
          <mxGeometry y="148" width="440" height="26" as="geometry" />
        </mxCell>
        <mxCell id="uS8OOOCSnNwOLfQj2_W_-198" value="+ getCpf ()                                                                               : String&#xa;" style="text;align=left;verticalAlign=top;spacingLeft=4;spacingRight=4;overflow=hidden;rotatable=0;points=[[0,0.5],[1,0.5]];portConstraint=eastwest;" parent="uS8OOOCSnNwOLfQj2_W_-188" vertex="1">
          <mxGeometry y="174" width="440" height="26" as="geometry" />
        </mxCell>
        <mxCell id="uS8OOOCSnNwOLfQj2_W_-209" value="+ setCpf (String cpf)                                                               : void&#xa;" style="text;align=left;verticalAlign=top;spacingLeft=4;spacingRight=4;overflow=hidden;rotatable=0;points=[[0,0.5],[1,0.5]];portConstraint=eastwest;" parent="uS8OOOCSnNwOLfQj2_W_-188" vertex="1">
          <mxGeometry y="200" width="440" height="26" as="geometry" />
        </mxCell>
        <mxCell id="uS8OOOCSnNwOLfQj2_W_-199" value="+ getDt_nascimento ()                                                           : LocalDate&#xa;" style="text;align=left;verticalAlign=top;spacingLeft=4;spacingRight=4;overflow=hidden;rotatable=0;points=[[0,0.5],[1,0.5]];portConstraint=eastwest;" parent="uS8OOOCSnNwOLfQj2_W_-188" vertex="1">
          <mxGeometry y="226" width="440" height="26" as="geometry" />
        </mxCell>
        <mxCell id="uS8OOOCSnNwOLfQj2_W_-200" value="+ setDt_nascimento (LocalDate dt_nascimento)               : void&#xa;" style="text;align=left;verticalAlign=top;spacingLeft=4;spacingRight=4;overflow=hidden;rotatable=0;points=[[0,0.5],[1,0.5]];portConstraint=eastwest;" parent="uS8OOOCSnNwOLfQj2_W_-188" vertex="1">
          <mxGeometry y="252" width="440" height="26" as="geometry" />
        </mxCell>
        <mxCell id="uS8OOOCSnNwOLfQj2_W_-210" value="Produto" style="swimlane;fontStyle=0;align=center;verticalAlign=top;childLayout=stackLayout;horizontal=1;startSize=26;horizontalStack=0;resizeParent=1;resizeLast=0;collapsible=1;marginBottom=0;rounded=0;shadow=0;strokeWidth=1;fillColor=#1ba1e2;fontColor=#000000;strokeColor=#006EAF;" parent="WIyWlLk6GJQsqaUBKTNV-1" vertex="1">
          <mxGeometry x="2540" y="-890" width="480" height="710" as="geometry">
            <mxRectangle x="130" y="380" width="160" height="26" as="alternateBounds" />
          </mxGeometry>
        </mxCell>
        <mxCell id="uS8OOOCSnNwOLfQj2_W_-211" value="- idproduto : int&#xa;" style="text;align=left;verticalAlign=top;spacingLeft=4;spacingRight=4;overflow=hidden;rotatable=0;points=[[0,0.5],[1,0.5]];portConstraint=eastwest;" parent="uS8OOOCSnNwOLfQj2_W_-210" vertex="1">
          <mxGeometry y="26" width="480" height="26" as="geometry" />
        </mxCell>
        <mxCell id="uS8OOOCSnNwOLfQj2_W_-221" value="- nome : String&#xa;" style="text;align=left;verticalAlign=top;spacingLeft=4;spacingRight=4;overflow=hidden;rotatable=0;points=[[0,0.5],[1,0.5]];portConstraint=eastwest;" parent="uS8OOOCSnNwOLfQj2_W_-210" vertex="1">
          <mxGeometry y="52" width="480" height="26" as="geometry" />
        </mxCell>
        <mxCell id="uS8OOOCSnNwOLfQj2_W_-222" value="- descricao : String&#xa;" style="text;align=left;verticalAlign=top;spacingLeft=4;spacingRight=4;overflow=hidden;rotatable=0;points=[[0,0.5],[1,0.5]];portConstraint=eastwest;" parent="uS8OOOCSnNwOLfQj2_W_-210" vertex="1">
          <mxGeometry y="78" width="480" height="26" as="geometry" />
        </mxCell>
        <mxCell id="uS8OOOCSnNwOLfQj2_W_-223" value="- vl_custo : double&#xa;" style="text;align=left;verticalAlign=top;spacingLeft=4;spacingRight=4;overflow=hidden;rotatable=0;points=[[0,0.5],[1,0.5]];portConstraint=eastwest;" parent="uS8OOOCSnNwOLfQj2_W_-210" vertex="1">
          <mxGeometry y="104" width="480" height="26" as="geometry" />
        </mxCell>
        <mxCell id="uS8OOOCSnNwOLfQj2_W_-224" value="- vl_venda : double&#xa;" style="text;align=left;verticalAlign=top;spacingLeft=4;spacingRight=4;overflow=hidden;rotatable=0;points=[[0,0.5],[1,0.5]];portConstraint=eastwest;" parent="uS8OOOCSnNwOLfQj2_W_-210" vertex="1">
          <mxGeometry y="130" width="480" height="26" as="geometry" />
        </mxCell>
        <mxCell id="uS8OOOCSnNwOLfQj2_W_-212" value="-qtd_estoque : int&#xa;" style="text;align=left;verticalAlign=top;spacingLeft=4;spacingRight=4;overflow=hidden;rotatable=0;points=[[0,0.5],[1,0.5]];portConstraint=eastwest;rounded=0;shadow=0;html=0;" parent="uS8OOOCSnNwOLfQj2_W_-210" vertex="1">
          <mxGeometry y="156" width="480" height="28" as="geometry" />
        </mxCell>
        <mxCell id="uS8OOOCSnNwOLfQj2_W_-213" value="- idcategoria : int&#xa;&#xa;" style="text;align=left;verticalAlign=top;spacingLeft=4;spacingRight=4;overflow=hidden;rotatable=0;points=[[0,0.5],[1,0.5]];portConstraint=eastwest;" parent="uS8OOOCSnNwOLfQj2_W_-210" vertex="1">
          <mxGeometry y="184" width="480" height="26" as="geometry" />
        </mxCell>
        <mxCell id="uS8OOOCSnNwOLfQj2_W_-214" value="" style="line;html=1;strokeWidth=1;align=left;verticalAlign=middle;spacingTop=-1;spacingLeft=3;spacingRight=3;rotatable=0;labelPosition=right;points=[];portConstraint=eastwest;" parent="uS8OOOCSnNwOLfQj2_W_-210" vertex="1">
          <mxGeometry y="210" width="480" height="16" as="geometry" />
        </mxCell>
        <mxCell id="uS8OOOCSnNwOLfQj2_W_-215" value="+ Produto ()                                                                          &#xa;" style="text;align=left;verticalAlign=top;spacingLeft=4;spacingRight=4;overflow=hidden;rotatable=0;points=[[0,0.5],[1,0.5]];portConstraint=eastwest;" parent="uS8OOOCSnNwOLfQj2_W_-210" vertex="1">
          <mxGeometry y="226" width="480" height="26" as="geometry" />
        </mxCell>
        <mxCell id="uS8OOOCSnNwOLfQj2_W_-216" value="+ Produto (int produto, String nome, int qtdEstoque)                                        &#xa;" style="text;align=left;verticalAlign=top;spacingLeft=4;spacingRight=4;overflow=hidden;rotatable=0;points=[[0,0.5],[1,0.5]];portConstraint=eastwest;" parent="uS8OOOCSnNwOLfQj2_W_-210" vertex="1">
          <mxGeometry y="252" width="480" height="26" as="geometry" />
        </mxCell>
        <mxCell id="uS8OOOCSnNwOLfQj2_W_-217" value="+ dadosProdutos ()                                                                               : void&#xa;" style="text;align=left;verticalAlign=top;spacingLeft=4;spacingRight=4;overflow=hidden;rotatable=0;points=[[0,0.5],[1,0.5]];portConstraint=eastwest;" parent="uS8OOOCSnNwOLfQj2_W_-210" vertex="1">
          <mxGeometry y="278" width="480" height="26" as="geometry" />
        </mxCell>
        <mxCell id="uS8OOOCSnNwOLfQj2_W_-218" value="+ alterarProduto ()                                                                                 : void&#xa;" style="text;align=left;verticalAlign=top;spacingLeft=4;spacingRight=4;overflow=hidden;rotatable=0;points=[[0,0.5],[1,0.5]];portConstraint=eastwest;" parent="uS8OOOCSnNwOLfQj2_W_-210" vertex="1">
          <mxGeometry y="304" width="480" height="26" as="geometry" />
        </mxCell>
        <mxCell id="uS8OOOCSnNwOLfQj2_W_-219" value="+getIdcategoria ()                                                                                  : int&#xa;" style="text;align=left;verticalAlign=top;spacingLeft=4;spacingRight=4;overflow=hidden;rotatable=0;points=[[0,0.5],[1,0.5]];portConstraint=eastwest;" parent="uS8OOOCSnNwOLfQj2_W_-210" vertex="1">
          <mxGeometry y="330" width="480" height="26" as="geometry" />
        </mxCell>
        <mxCell id="uS8OOOCSnNwOLfQj2_W_-220" value="+ setIdcategoria (int idcategoria)                                                        : void&#xa;" style="text;align=left;verticalAlign=top;spacingLeft=4;spacingRight=4;overflow=hidden;rotatable=0;points=[[0,0.5],[1,0.5]];portConstraint=eastwest;" parent="uS8OOOCSnNwOLfQj2_W_-210" vertex="1">
          <mxGeometry y="356" width="480" height="26" as="geometry" />
        </mxCell>
        <mxCell id="uS8OOOCSnNwOLfQj2_W_-225" value="+ getDescricao (int idcategoria)                                                         : String&#xa;" style="text;align=left;verticalAlign=top;spacingLeft=4;spacingRight=4;overflow=hidden;rotatable=0;points=[[0,0.5],[1,0.5]];portConstraint=eastwest;" parent="uS8OOOCSnNwOLfQj2_W_-210" vertex="1">
          <mxGeometry y="382" width="480" height="26" as="geometry" />
        </mxCell>
        <mxCell id="uS8OOOCSnNwOLfQj2_W_-226" value="+ setDescricao (String descricao)                                                      : void&#xa;" style="text;align=left;verticalAlign=top;spacingLeft=4;spacingRight=4;overflow=hidden;rotatable=0;points=[[0,0.5],[1,0.5]];portConstraint=eastwest;" parent="uS8OOOCSnNwOLfQj2_W_-210" vertex="1">
          <mxGeometry y="408" width="480" height="26" as="geometry" />
        </mxCell>
        <mxCell id="uS8OOOCSnNwOLfQj2_W_-227" value="+ getIdproduto (int idcategoria)                                                           : int&#xa;" style="text;align=left;verticalAlign=top;spacingLeft=4;spacingRight=4;overflow=hidden;rotatable=0;points=[[0,0.5],[1,0.5]];portConstraint=eastwest;" parent="uS8OOOCSnNwOLfQj2_W_-210" vertex="1">
          <mxGeometry y="434" width="480" height="26" as="geometry" />
        </mxCell>
        <mxCell id="uS8OOOCSnNwOLfQj2_W_-228" value="+ setIdproduto (int idproduto)                                                               : void&#xa;" style="text;align=left;verticalAlign=top;spacingLeft=4;spacingRight=4;overflow=hidden;rotatable=0;points=[[0,0.5],[1,0.5]];portConstraint=eastwest;" parent="uS8OOOCSnNwOLfQj2_W_-210" vertex="1">
          <mxGeometry y="460" width="480" height="26" as="geometry" />
        </mxCell>
        <mxCell id="uS8OOOCSnNwOLfQj2_W_-229" value="+ getNome ()                                                                                          : String&#xa;" style="text;align=left;verticalAlign=top;spacingLeft=4;spacingRight=4;overflow=hidden;rotatable=0;points=[[0,0.5],[1,0.5]];portConstraint=eastwest;" parent="uS8OOOCSnNwOLfQj2_W_-210" vertex="1">
          <mxGeometry y="486" width="480" height="26" as="geometry" />
        </mxCell>
        <mxCell id="uS8OOOCSnNwOLfQj2_W_-230" value="+ setNome (String nome)                                                                     : void&#xa;" style="text;align=left;verticalAlign=top;spacingLeft=4;spacingRight=4;overflow=hidden;rotatable=0;points=[[0,0.5],[1,0.5]];portConstraint=eastwest;" parent="uS8OOOCSnNwOLfQj2_W_-210" vertex="1">
          <mxGeometry y="512" width="480" height="26" as="geometry" />
        </mxCell>
        <mxCell id="uS8OOOCSnNwOLfQj2_W_-231" value="+ getVl_custo ()                                                                                     : double&#xa;" style="text;align=left;verticalAlign=top;spacingLeft=4;spacingRight=4;overflow=hidden;rotatable=0;points=[[0,0.5],[1,0.5]];portConstraint=eastwest;" parent="uS8OOOCSnNwOLfQj2_W_-210" vertex="1">
          <mxGeometry y="538" width="480" height="26" as="geometry" />
        </mxCell>
        <mxCell id="uS8OOOCSnNwOLfQj2_W_-232" value="+ setVl_custo (double vl_custo)                                                          : void&#xa;" style="text;align=left;verticalAlign=top;spacingLeft=4;spacingRight=4;overflow=hidden;rotatable=0;points=[[0,0.5],[1,0.5]];portConstraint=eastwest;" parent="uS8OOOCSnNwOLfQj2_W_-210" vertex="1">
          <mxGeometry y="564" width="480" height="26" as="geometry" />
        </mxCell>
        <mxCell id="uS8OOOCSnNwOLfQj2_W_-233" value="+ getVl_venda ()                                                                                    : double&#xa;" style="text;align=left;verticalAlign=top;spacingLeft=4;spacingRight=4;overflow=hidden;rotatable=0;points=[[0,0.5],[1,0.5]];portConstraint=eastwest;" parent="uS8OOOCSnNwOLfQj2_W_-210" vertex="1">
          <mxGeometry y="590" width="480" height="26" as="geometry" />
        </mxCell>
        <mxCell id="uS8OOOCSnNwOLfQj2_W_-234" value="+ setVl_venda (double vl_venda)                                                        : void&#xa;" style="text;align=left;verticalAlign=top;spacingLeft=4;spacingRight=4;overflow=hidden;rotatable=0;points=[[0,0.5],[1,0.5]];portConstraint=eastwest;" parent="uS8OOOCSnNwOLfQj2_W_-210" vertex="1">
          <mxGeometry y="616" width="480" height="26" as="geometry" />
        </mxCell>
        <mxCell id="uS8OOOCSnNwOLfQj2_W_-235" value="+ getQtd_estoque ()                                                                              : int&#xa;" style="text;align=left;verticalAlign=top;spacingLeft=4;spacingRight=4;overflow=hidden;rotatable=0;points=[[0,0.5],[1,0.5]];portConstraint=eastwest;" parent="uS8OOOCSnNwOLfQj2_W_-210" vertex="1">
          <mxGeometry y="642" width="480" height="26" as="geometry" />
        </mxCell>
        <mxCell id="uS8OOOCSnNwOLfQj2_W_-236" value="+ setVl_venda (double vl_venda)                                                        : void&#xa;" style="text;align=left;verticalAlign=top;spacingLeft=4;spacingRight=4;overflow=hidden;rotatable=0;points=[[0,0.5],[1,0.5]];portConstraint=eastwest;" parent="uS8OOOCSnNwOLfQj2_W_-210" vertex="1">
          <mxGeometry y="668" width="480" height="26" as="geometry" />
        </mxCell>
        <mxCell id="MnSycOdXHLAEnKFS3MfO-0" value="CategoriaDAO" style="swimlane;fontStyle=0;align=center;verticalAlign=top;childLayout=stackLayout;horizontal=1;startSize=26;horizontalStack=0;resizeParent=1;resizeLast=0;collapsible=1;marginBottom=0;rounded=0;shadow=0;strokeWidth=1;fillColor=#fa6800;fontColor=#000000;strokeColor=#C73500;" parent="WIyWlLk6GJQsqaUBKTNV-1" vertex="1">
          <mxGeometry x="3205" y="-230" width="480" height="340" as="geometry">
            <mxRectangle x="130" y="380" width="160" height="26" as="alternateBounds" />
          </mxGeometry>
        </mxCell>
        <mxCell id="MnSycOdXHLAEnKFS3MfO-1" value="- conexao : Conexao&#xa;" style="text;align=left;verticalAlign=top;spacingLeft=4;spacingRight=4;overflow=hidden;rotatable=0;points=[[0,0.5],[1,0.5]];portConstraint=eastwest;" parent="MnSycOdXHLAEnKFS3MfO-0" vertex="1">
          <mxGeometry y="26" width="480" height="26" as="geometry" />
        </mxCell>
        <mxCell id="MnSycOdXHLAEnKFS3MfO-2" value="- schema : String&#xa;&#xa;+ " style="text;align=left;verticalAlign=top;spacingLeft=4;spacingRight=4;overflow=hidden;rotatable=0;points=[[0,0.5],[1,0.5]];portConstraint=eastwest;rounded=0;shadow=0;html=0;" parent="MnSycOdXHLAEnKFS3MfO-0" vertex="1">
          <mxGeometry y="52" width="480" height="28" as="geometry" />
        </mxCell>
        <mxCell id="MnSycOdXHLAEnKFS3MfO-4" value="" style="line;html=1;strokeWidth=1;align=left;verticalAlign=middle;spacingTop=-1;spacingLeft=3;spacingRight=3;rotatable=0;labelPosition=right;points=[];portConstraint=eastwest;" parent="MnSycOdXHLAEnKFS3MfO-0" vertex="1">
          <mxGeometry y="80" width="480" height="16" as="geometry" />
        </mxCell>
        <mxCell id="MnSycOdXHLAEnKFS3MfO-5" value="+ CategoriaDAO (Conexao conexao, String schema)&#xa;" style="text;align=left;verticalAlign=top;spacingLeft=4;spacingRight=4;overflow=hidden;rotatable=0;points=[[0,0.5],[1,0.5]];portConstraint=eastwest;" parent="MnSycOdXHLAEnKFS3MfO-0" vertex="1">
          <mxGeometry y="96" width="480" height="26" as="geometry" />
        </mxCell>
        <mxCell id="MnSycOdXHLAEnKFS3MfO-14" value="" style="line;html=1;strokeWidth=1;align=left;verticalAlign=middle;spacingTop=-1;spacingLeft=3;spacingRight=3;rotatable=0;labelPosition=right;points=[];portConstraint=eastwest;" parent="MnSycOdXHLAEnKFS3MfO-0" vertex="1">
          <mxGeometry y="122" width="480" height="16" as="geometry" />
        </mxCell>
        <mxCell id="MnSycOdXHLAEnKFS3MfO-6" value="- prepararSqlInclusao ()                                                               : void&#xa;" style="text;align=left;verticalAlign=top;spacingLeft=4;spacingRight=4;overflow=hidden;rotatable=0;points=[[0,0.5],[1,0.5]];portConstraint=eastwest;rounded=0;shadow=0;html=0;" parent="MnSycOdXHLAEnKFS3MfO-0" vertex="1">
          <mxGeometry y="138" width="480" height="26" as="geometry" />
        </mxCell>
        <mxCell id="MnSycOdXHLAEnKFS3MfO-7" value="- prepararSqlAlteracao ()                                                            : void&#xa;" style="text;align=left;verticalAlign=top;spacingLeft=4;spacingRight=4;overflow=hidden;rotatable=0;points=[[0,0.5],[1,0.5]];portConstraint=eastwest;rounded=0;shadow=0;html=0;" parent="MnSycOdXHLAEnKFS3MfO-0" vertex="1">
          <mxGeometry y="164" width="480" height="26" as="geometry" />
        </mxCell>
        <mxCell id="MnSycOdXHLAEnKFS3MfO-15" value="" style="line;html=1;strokeWidth=1;align=left;verticalAlign=middle;spacingTop=-1;spacingLeft=3;spacingRight=3;rotatable=0;labelPosition=right;points=[];portConstraint=eastwest;" parent="MnSycOdXHLAEnKFS3MfO-0" vertex="1">
          <mxGeometry y="190" width="480" height="16" as="geometry" />
        </mxCell>
        <mxCell id="MnSycOdXHLAEnKFS3MfO-8" value="+ incluirCategoria (Categoria categoria)                                  : int&#xa;" style="text;align=left;verticalAlign=top;spacingLeft=4;spacingRight=4;overflow=hidden;rotatable=0;points=[[0,0.5],[1,0.5]];portConstraint=eastwest;rounded=0;shadow=0;html=0;" parent="MnSycOdXHLAEnKFS3MfO-0" vertex="1">
          <mxGeometry y="206" width="480" height="26" as="geometry" />
        </mxCell>
        <mxCell id="MnSycOdXHLAEnKFS3MfO-9" value="+ alterarCategoria (Categoria categoria)                                 : int" style="text;align=left;verticalAlign=top;spacingLeft=4;spacingRight=4;overflow=hidden;rotatable=0;points=[[0,0.5],[1,0.5]];portConstraint=eastwest;rounded=0;shadow=0;html=0;" parent="MnSycOdXHLAEnKFS3MfO-0" vertex="1">
          <mxGeometry y="232" width="480" height="26" as="geometry" />
        </mxCell>
        <mxCell id="MnSycOdXHLAEnKFS3MfO-10" value="+ carregarCategoria (int idcliente)                                             : ResultSet&#xa;" style="text;align=left;verticalAlign=top;spacingLeft=4;spacingRight=4;overflow=hidden;rotatable=0;points=[[0,0.5],[1,0.5]];portConstraint=eastwest;" parent="MnSycOdXHLAEnKFS3MfO-0" vertex="1">
          <mxGeometry y="258" width="480" height="26" as="geometry" />
        </mxCell>
        <mxCell id="MnSycOdXHLAEnKFS3MfO-16" value="" style="line;html=1;strokeWidth=1;align=left;verticalAlign=middle;spacingTop=-1;spacingLeft=3;spacingRight=3;rotatable=0;labelPosition=right;points=[];portConstraint=eastwest;" parent="MnSycOdXHLAEnKFS3MfO-0" vertex="1">
          <mxGeometry y="284" width="480" height="16" as="geometry" />
        </mxCell>
        <mxCell id="MnSycOdXHLAEnKFS3MfO-11" value="+ carregarCategoriaMenu ()                                                       : ArrayList &lt;Categoria&gt;&#xa;" style="text;align=left;verticalAlign=top;spacingLeft=4;spacingRight=4;overflow=hidden;rotatable=0;points=[[0,0.5],[1,0.5]];portConstraint=eastwest;" parent="MnSycOdXHLAEnKFS3MfO-0" vertex="1">
          <mxGeometry y="300" width="480" height="26" as="geometry" />
        </mxCell>
        <mxCell id="MnSycOdXHLAEnKFS3MfO-17" value="ClienteDAO&#xa;" style="swimlane;fontStyle=0;align=center;verticalAlign=top;childLayout=stackLayout;horizontal=1;startSize=26;horizontalStack=0;resizeParent=1;resizeLast=0;collapsible=1;marginBottom=0;rounded=0;shadow=0;strokeWidth=1;fillColor=#fa6800;fontColor=#000000;strokeColor=#C73500;" parent="WIyWlLk6GJQsqaUBKTNV-1" vertex="1">
          <mxGeometry x="715" y="-890" width="460" height="410" as="geometry">
            <mxRectangle x="130" y="380" width="160" height="26" as="alternateBounds" />
          </mxGeometry>
        </mxCell>
        <mxCell id="MnSycOdXHLAEnKFS3MfO-35" value="- conexao : Conexao&#xa;" style="text;align=left;verticalAlign=top;spacingLeft=4;spacingRight=4;overflow=hidden;rotatable=0;points=[[0,0.5],[1,0.5]];portConstraint=eastwest;" parent="MnSycOdXHLAEnKFS3MfO-17" vertex="1">
          <mxGeometry y="26" width="460" height="26" as="geometry" />
        </mxCell>
        <mxCell id="MnSycOdXHLAEnKFS3MfO-36" value="- schema : String&#xa;&#xa;+ " style="text;align=left;verticalAlign=top;spacingLeft=4;spacingRight=4;overflow=hidden;rotatable=0;points=[[0,0.5],[1,0.5]];portConstraint=eastwest;rounded=0;shadow=0;html=0;" parent="MnSycOdXHLAEnKFS3MfO-17" vertex="1">
          <mxGeometry y="52" width="460" height="28" as="geometry" />
        </mxCell>
        <mxCell id="MnSycOdXHLAEnKFS3MfO-22" value="" style="line;html=1;strokeWidth=1;align=left;verticalAlign=middle;spacingTop=-1;spacingLeft=3;spacingRight=3;rotatable=0;labelPosition=right;points=[];portConstraint=eastwest;" parent="MnSycOdXHLAEnKFS3MfO-17" vertex="1">
          <mxGeometry y="80" width="460" height="16" as="geometry" />
        </mxCell>
        <mxCell id="MnSycOdXHLAEnKFS3MfO-23" value="+ ClienteDAO (Conexao conexao, String schema)&#xa;" style="text;align=left;verticalAlign=top;spacingLeft=4;spacingRight=4;overflow=hidden;rotatable=0;points=[[0,0.5],[1,0.5]];portConstraint=eastwest;" parent="MnSycOdXHLAEnKFS3MfO-17" vertex="1">
          <mxGeometry y="96" width="460" height="26" as="geometry" />
        </mxCell>
        <mxCell id="MnSycOdXHLAEnKFS3MfO-41" value="" style="line;html=1;strokeWidth=1;align=left;verticalAlign=middle;spacingTop=-1;spacingLeft=3;spacingRight=3;rotatable=0;labelPosition=right;points=[];portConstraint=eastwest;" parent="MnSycOdXHLAEnKFS3MfO-17" vertex="1">
          <mxGeometry y="122" width="460" height="16" as="geometry" />
        </mxCell>
        <mxCell id="MnSycOdXHLAEnKFS3MfO-38" value="- prepararSqlInclusao ()                                                 : void&#xa;" style="text;align=left;verticalAlign=top;spacingLeft=4;spacingRight=4;overflow=hidden;rotatable=0;points=[[0,0.5],[1,0.5]];portConstraint=eastwest;rounded=0;shadow=0;html=0;" parent="MnSycOdXHLAEnKFS3MfO-17" vertex="1">
          <mxGeometry y="138" width="460" height="26" as="geometry" />
        </mxCell>
        <mxCell id="MnSycOdXHLAEnKFS3MfO-39" value="- prepararSqlAlteracao ()                                               : void&#xa;" style="text;align=left;verticalAlign=top;spacingLeft=4;spacingRight=4;overflow=hidden;rotatable=0;points=[[0,0.5],[1,0.5]];portConstraint=eastwest;rounded=0;shadow=0;html=0;" parent="MnSycOdXHLAEnKFS3MfO-17" vertex="1">
          <mxGeometry y="164" width="460" height="26" as="geometry" />
        </mxCell>
        <mxCell id="MnSycOdXHLAEnKFS3MfO-40" value="- prepararSqlExclusao ()                                               : void&#xa;" style="text;align=left;verticalAlign=top;spacingLeft=4;spacingRight=4;overflow=hidden;rotatable=0;points=[[0,0.5],[1,0.5]];portConstraint=eastwest;rounded=0;shadow=0;html=0;" parent="MnSycOdXHLAEnKFS3MfO-17" vertex="1">
          <mxGeometry y="190" width="460" height="26" as="geometry" />
        </mxCell>
        <mxCell id="MnSycOdXHLAEnKFS3MfO-42" value="" style="line;html=1;strokeWidth=1;align=left;verticalAlign=middle;spacingTop=-1;spacingLeft=3;spacingRight=3;rotatable=0;labelPosition=right;points=[];portConstraint=eastwest;" parent="MnSycOdXHLAEnKFS3MfO-17" vertex="1">
          <mxGeometry y="216" width="460" height="16" as="geometry" />
        </mxCell>
        <mxCell id="MnSycOdXHLAEnKFS3MfO-43" value="+ incluirCliente (Cliente cliente)                                     : int&#xa;" style="text;align=left;verticalAlign=top;spacingLeft=4;spacingRight=4;overflow=hidden;rotatable=0;points=[[0,0.5],[1,0.5]];portConstraint=eastwest;rounded=0;shadow=0;html=0;" parent="MnSycOdXHLAEnKFS3MfO-17" vertex="1">
          <mxGeometry y="232" width="460" height="26" as="geometry" />
        </mxCell>
        <mxCell id="MnSycOdXHLAEnKFS3MfO-44" value="+ alterarCliente (Cliente cliente)                                     : int" style="text;align=left;verticalAlign=top;spacingLeft=4;spacingRight=4;overflow=hidden;rotatable=0;points=[[0,0.5],[1,0.5]];portConstraint=eastwest;rounded=0;shadow=0;html=0;" parent="MnSycOdXHLAEnKFS3MfO-17" vertex="1">
          <mxGeometry y="258" width="460" height="26" as="geometry" />
        </mxCell>
        <mxCell id="MnSycOdXHLAEnKFS3MfO-45" value="+ excluirCliente (Cliente cliente)                                    : int&#xa;" style="text;align=left;verticalAlign=top;spacingLeft=4;spacingRight=4;overflow=hidden;rotatable=0;points=[[0,0.5],[1,0.5]];portConstraint=eastwest;" parent="MnSycOdXHLAEnKFS3MfO-17" vertex="1">
          <mxGeometry y="284" width="460" height="26" as="geometry" />
        </mxCell>
        <mxCell id="MnSycOdXHLAEnKFS3MfO-46" value="" style="line;html=1;strokeWidth=1;align=left;verticalAlign=middle;spacingTop=-1;spacingLeft=3;spacingRight=3;rotatable=0;labelPosition=right;points=[];portConstraint=eastwest;" parent="MnSycOdXHLAEnKFS3MfO-17" vertex="1">
          <mxGeometry y="310" width="460" height="16" as="geometry" />
        </mxCell>
        <mxCell id="MnSycOdXHLAEnKFS3MfO-47" value="+ carregarClientes ()                                                     : ResultSet&#xa;" style="text;align=left;verticalAlign=top;spacingLeft=4;spacingRight=4;overflow=hidden;rotatable=0;points=[[0,0.5],[1,0.5]];portConstraint=eastwest;" parent="MnSycOdXHLAEnKFS3MfO-17" vertex="1">
          <mxGeometry y="326" width="460" height="26" as="geometry" />
        </mxCell>
        <mxCell id="MnSycOdXHLAEnKFS3MfO-48" value="+ carregarClienteMenu ()                                               : ArrayList &lt;Cliente&gt;&#xa;" style="text;align=left;verticalAlign=top;spacingLeft=4;spacingRight=4;overflow=hidden;rotatable=0;points=[[0,0.5],[1,0.5]];portConstraint=eastwest;" parent="MnSycOdXHLAEnKFS3MfO-17" vertex="1">
          <mxGeometry y="352" width="460" height="26" as="geometry" />
        </mxCell>
        <mxCell id="MnSycOdXHLAEnKFS3MfO-49" value="+ buscarClientePorIdCliente (int id)                                : Cliente&#xa;" style="text;align=left;verticalAlign=top;spacingLeft=4;spacingRight=4;overflow=hidden;rotatable=0;points=[[0,0.5],[1,0.5]];portConstraint=eastwest;" parent="MnSycOdXHLAEnKFS3MfO-17" vertex="1">
          <mxGeometry y="378" width="460" height="26" as="geometry" />
        </mxCell>
        <mxCell id="MnSycOdXHLAEnKFS3MfO-50" value="CreateDAO&#xa;" style="swimlane;fontStyle=0;align=center;verticalAlign=top;childLayout=stackLayout;horizontal=1;startSize=26;horizontalStack=0;resizeParent=1;resizeLast=0;collapsible=1;marginBottom=0;rounded=0;shadow=0;strokeWidth=1;fillColor=#fa6800;fontColor=#000000;strokeColor=#C73500;" parent="WIyWlLk6GJQsqaUBKTNV-1" vertex="1">
          <mxGeometry x="375" y="1600" width="520" height="620" as="geometry">
            <mxRectangle x="130" y="380" width="160" height="26" as="alternateBounds" />
          </mxGeometry>
        </mxCell>
        <mxCell id="MnSycOdXHLAEnKFS3MfO-51" value="- conexao : Conexao&#xa;" style="text;align=left;verticalAlign=top;spacingLeft=4;spacingRight=4;overflow=hidden;rotatable=0;points=[[0,0.5],[1,0.5]];portConstraint=eastwest;" parent="MnSycOdXHLAEnKFS3MfO-50" vertex="1">
          <mxGeometry y="26" width="520" height="26" as="geometry" />
        </mxCell>
        <mxCell id="MnSycOdXHLAEnKFS3MfO-53" value="" style="line;html=1;strokeWidth=1;align=left;verticalAlign=middle;spacingTop=-1;spacingLeft=3;spacingRight=3;rotatable=0;labelPosition=right;points=[];portConstraint=eastwest;" parent="MnSycOdXHLAEnKFS3MfO-50" vertex="1">
          <mxGeometry y="52" width="520" height="16" as="geometry" />
        </mxCell>
        <mxCell id="MnSycOdXHLAEnKFS3MfO-54" value="+ createBD (String bd, String schema, DadosConexao dadosCon)                  : boolean&#xa;" style="text;align=left;verticalAlign=top;spacingLeft=4;spacingRight=4;overflow=hidden;rotatable=0;points=[[0,0.5],[1,0.5]];portConstraint=eastwest;" parent="MnSycOdXHLAEnKFS3MfO-50" vertex="1">
          <mxGeometry y="68" width="520" height="26" as="geometry" />
        </mxCell>
        <mxCell id="MnSycOdXHLAEnKFS3MfO-55" value="" style="line;html=1;strokeWidth=1;align=left;verticalAlign=middle;spacingTop=-1;spacingLeft=3;spacingRight=3;rotatable=0;labelPosition=right;points=[];portConstraint=eastwest;" parent="MnSycOdXHLAEnKFS3MfO-50" vertex="1">
          <mxGeometry y="94" width="520" height="16" as="geometry" />
        </mxCell>
        <mxCell id="MnSycOdXHLAEnKFS3MfO-56" value="+ conectar (String bd, DadosConexao dadosCon)                                               : Conexao&#xa;" style="text;align=left;verticalAlign=top;spacingLeft=4;spacingRight=4;overflow=hidden;rotatable=0;points=[[0,0.5],[1,0.5]];portConstraint=eastwest;rounded=0;shadow=0;html=0;" parent="MnSycOdXHLAEnKFS3MfO-50" vertex="1">
          <mxGeometry y="110" width="520" height="26" as="geometry" />
        </mxCell>
        <mxCell id="MnSycOdXHLAEnKFS3MfO-57" value="- desconectar (Conexao con)                                                                                   : void&#xa;" style="text;align=left;verticalAlign=top;spacingLeft=4;spacingRight=4;overflow=hidden;rotatable=0;points=[[0,0.5],[1,0.5]];portConstraint=eastwest;rounded=0;shadow=0;html=0;" parent="MnSycOdXHLAEnKFS3MfO-50" vertex="1">
          <mxGeometry y="136" width="520" height="26" as="geometry" />
        </mxCell>
        <mxCell id="MnSycOdXHLAEnKFS3MfO-59" value="" style="line;html=1;strokeWidth=1;align=left;verticalAlign=middle;spacingTop=-1;spacingLeft=3;spacingRight=3;rotatable=0;labelPosition=right;points=[];portConstraint=eastwest;" parent="MnSycOdXHLAEnKFS3MfO-50" vertex="1">
          <mxGeometry y="162" width="520" height="16" as="geometry" />
        </mxCell>
        <mxCell id="MnSycOdXHLAEnKFS3MfO-60" value="+ criarDatabase (Conexao con, String bd)                                                             : boolean&#xa;" style="text;align=left;verticalAlign=top;spacingLeft=4;spacingRight=4;overflow=hidden;rotatable=0;points=[[0,0.5],[1,0.5]];portConstraint=eastwest;rounded=0;shadow=0;html=0;" parent="MnSycOdXHLAEnKFS3MfO-50" vertex="1">
          <mxGeometry y="178" width="520" height="26" as="geometry" />
        </mxCell>
        <mxCell id="MnSycOdXHLAEnKFS3MfO-61" value="+ criarSchema (Conexao con, String schema)                                                      : boolean&#xa;" style="text;align=left;verticalAlign=top;spacingLeft=4;spacingRight=4;overflow=hidden;rotatable=0;points=[[0,0.5],[1,0.5]];portConstraint=eastwest;rounded=0;shadow=0;html=0;" parent="MnSycOdXHLAEnKFS3MfO-50" vertex="1">
          <mxGeometry y="204" width="520" height="26" as="geometry" />
        </mxCell>
        <mxCell id="MnSycOdXHLAEnKFS3MfO-62" value="+ criarTabela (Conexao con, String entidade, String schema)                            : void&#xa;" style="text;align=left;verticalAlign=top;spacingLeft=4;spacingRight=4;overflow=hidden;rotatable=0;points=[[0,0.5],[1,0.5]];portConstraint=eastwest;" parent="MnSycOdXHLAEnKFS3MfO-50" vertex="1">
          <mxGeometry y="230" width="520" height="26" as="geometry" />
        </mxCell>
        <mxCell id="MnSycOdXHLAEnKFS3MfO-68" value="+ criarCampo (Conexao con, String entidade, String schema)                           : void&#xa;" style="text;align=left;verticalAlign=top;spacingLeft=4;spacingRight=4;overflow=hidden;rotatable=0;points=[[0,0.5],[1,0.5]];portConstraint=eastwest;" parent="MnSycOdXHLAEnKFS3MfO-50" vertex="1">
          <mxGeometry y="256" width="520" height="26" as="geometry" />
        </mxCell>
        <mxCell id="MnSycOdXHLAEnKFS3MfO-63" value="" style="line;html=1;strokeWidth=1;align=left;verticalAlign=middle;spacingTop=-1;spacingLeft=3;spacingRight=3;rotatable=0;labelPosition=right;points=[];portConstraint=eastwest;" parent="MnSycOdXHLAEnKFS3MfO-50" vertex="1">
          <mxGeometry y="282" width="520" height="16" as="geometry" />
        </mxCell>
        <mxCell id="MnSycOdXHLAEnKFS3MfO-69" value="- criarEntidadeCliente (Conexao con,  String schema)                                        : void&#xa;" style="text;align=left;verticalAlign=top;spacingLeft=4;spacingRight=4;overflow=hidden;rotatable=0;points=[[0,0.5],[1,0.5]];portConstraint=eastwest;" parent="MnSycOdXHLAEnKFS3MfO-50" vertex="1">
          <mxGeometry y="298" width="520" height="26" as="geometry" />
        </mxCell>
        <mxCell id="MnSycOdXHLAEnKFS3MfO-70" value="- criarEntidadeCategoria (Conexao con,  String schema)                                   : void&#xa;" style="text;align=left;verticalAlign=top;spacingLeft=4;spacingRight=4;overflow=hidden;rotatable=0;points=[[0,0.5],[1,0.5]];portConstraint=eastwest;" parent="MnSycOdXHLAEnKFS3MfO-50" vertex="1">
          <mxGeometry y="324" width="520" height="26" as="geometry" />
        </mxCell>
        <mxCell id="MnSycOdXHLAEnKFS3MfO-71" value="- criarEntidadeProduto (Conexao con,  String schema)                                      : void&#xa;" style="text;align=left;verticalAlign=top;spacingLeft=4;spacingRight=4;overflow=hidden;rotatable=0;points=[[0,0.5],[1,0.5]];portConstraint=eastwest;" parent="MnSycOdXHLAEnKFS3MfO-50" vertex="1">
          <mxGeometry y="350" width="520" height="26" as="geometry" />
        </mxCell>
        <mxCell id="MnSycOdXHLAEnKFS3MfO-72" value="- criarEntidadePedido (Conexao con,  String schema)                                       : void&#xa;" style="text;align=left;verticalAlign=top;spacingLeft=4;spacingRight=4;overflow=hidden;rotatable=0;points=[[0,0.5],[1,0.5]];portConstraint=eastwest;" parent="MnSycOdXHLAEnKFS3MfO-50" vertex="1">
          <mxGeometry y="376" width="520" height="26" as="geometry" />
        </mxCell>
        <mxCell id="MnSycOdXHLAEnKFS3MfO-73" value="- criarEntidadePedidoItem (Conexao con,  String schema)                               : void&#xa;" style="text;align=left;verticalAlign=top;spacingLeft=4;spacingRight=4;overflow=hidden;rotatable=0;points=[[0,0.5],[1,0.5]];portConstraint=eastwest;" parent="MnSycOdXHLAEnKFS3MfO-50" vertex="1">
          <mxGeometry y="402" width="520" height="26" as="geometry" />
        </mxCell>
        <mxCell id="MnSycOdXHLAEnKFS3MfO-75" value="" style="line;html=1;strokeWidth=1;align=left;verticalAlign=middle;spacingTop=-1;spacingLeft=3;spacingRight=3;rotatable=0;labelPosition=right;points=[];portConstraint=eastwest;" parent="MnSycOdXHLAEnKFS3MfO-50" vertex="1">
          <mxGeometry y="428" width="520" height="16" as="geometry" />
        </mxCell>
        <mxCell id="MnSycOdXHLAEnKFS3MfO-74" value="+ databaseExists (Conexao con,  String bd)                                                        : boolean&#xa;" style="text;align=left;verticalAlign=top;spacingLeft=4;spacingRight=4;overflow=hidden;rotatable=0;points=[[0,0.5],[1,0.5]];portConstraint=eastwest;" parent="MnSycOdXHLAEnKFS3MfO-50" vertex="1">
          <mxGeometry y="444" width="520" height="26" as="geometry" />
        </mxCell>
        <mxCell id="MnSycOdXHLAEnKFS3MfO-76" value="+ entidadeExists (Conexao con,  String bd, String entidade)                            : boolean&#xa;" style="text;align=left;verticalAlign=top;spacingLeft=4;spacingRight=4;overflow=hidden;rotatable=0;points=[[0,0.5],[1,0.5]];portConstraint=eastwest;" parent="MnSycOdXHLAEnKFS3MfO-50" vertex="1">
          <mxGeometry y="470" width="520" height="26" as="geometry" />
        </mxCell>
        <mxCell id="MnSycOdXHLAEnKFS3MfO-80" value="+ atributoExists (Conexao con,  String bd)                                                           : boolean&#xa;" style="text;align=left;verticalAlign=top;spacingLeft=4;spacingRight=4;overflow=hidden;rotatable=0;points=[[0,0.5],[1,0.5]];portConstraint=eastwest;" parent="MnSycOdXHLAEnKFS3MfO-50" vertex="1">
          <mxGeometry y="496" width="520" height="24" as="geometry" />
        </mxCell>
        <mxCell id="MnSycOdXHLAEnKFS3MfO-78" value="" style="line;html=1;strokeWidth=1;align=left;verticalAlign=middle;spacingTop=-1;spacingLeft=3;spacingRight=3;rotatable=0;labelPosition=right;points=[];portConstraint=eastwest;" parent="MnSycOdXHLAEnKFS3MfO-50" vertex="1">
          <mxGeometry y="520" width="520" height="16" as="geometry" />
        </mxCell>
        <mxCell id="MnSycOdXHLAEnKFS3MfO-82" value="- cadastrarClientes (Conexao con,  String schema, String entidade)               : boolean&#xa;" style="text;align=left;verticalAlign=top;spacingLeft=4;spacingRight=4;overflow=hidden;rotatable=0;points=[[0,0.5],[1,0.5]];portConstraint=eastwest;" parent="MnSycOdXHLAEnKFS3MfO-50" vertex="1">
          <mxGeometry y="536" width="520" height="26" as="geometry" />
        </mxCell>
        <mxCell id="MnSycOdXHLAEnKFS3MfO-83" value="- cadastrarCategorias (Conexao con,  String schema, String entidade)          : boolean&#xa;" style="text;align=left;verticalAlign=top;spacingLeft=4;spacingRight=4;overflow=hidden;rotatable=0;points=[[0,0.5],[1,0.5]];portConstraint=eastwest;" parent="MnSycOdXHLAEnKFS3MfO-50" vertex="1">
          <mxGeometry y="562" width="520" height="26" as="geometry" />
        </mxCell>
        <mxCell id="MnSycOdXHLAEnKFS3MfO-84" value="- cadastrarProdutos (Conexao con,  String schema, String entidade)              : boolean&#xa;" style="text;align=left;verticalAlign=top;spacingLeft=4;spacingRight=4;overflow=hidden;rotatable=0;points=[[0,0.5],[1,0.5]];portConstraint=eastwest;" parent="MnSycOdXHLAEnKFS3MfO-50" vertex="1">
          <mxGeometry y="588" width="520" height="26" as="geometry" />
        </mxCell>
        <mxCell id="MnSycOdXHLAEnKFS3MfO-85" value="PedidoDAO&#xa;" style="swimlane;fontStyle=0;align=center;verticalAlign=top;childLayout=stackLayout;horizontal=1;startSize=26;horizontalStack=0;resizeParent=1;resizeLast=0;collapsible=1;marginBottom=0;rounded=0;shadow=0;strokeWidth=1;fillColor=#fa6800;fontColor=#000000;strokeColor=#C73500;" parent="WIyWlLk6GJQsqaUBKTNV-1" vertex="1">
          <mxGeometry x="1815" y="1200" width="460" height="390" as="geometry">
            <mxRectangle x="130" y="380" width="160" height="26" as="alternateBounds" />
          </mxGeometry>
        </mxCell>
        <mxCell id="MnSycOdXHLAEnKFS3MfO-86" value="- conexao : Conexao&#xa;" style="text;align=left;verticalAlign=top;spacingLeft=4;spacingRight=4;overflow=hidden;rotatable=0;points=[[0,0.5],[1,0.5]];portConstraint=eastwest;" parent="MnSycOdXHLAEnKFS3MfO-85" vertex="1">
          <mxGeometry y="26" width="460" height="26" as="geometry" />
        </mxCell>
        <mxCell id="MnSycOdXHLAEnKFS3MfO-87" value="- schema : String&#xa;&#xa;+ " style="text;align=left;verticalAlign=top;spacingLeft=4;spacingRight=4;overflow=hidden;rotatable=0;points=[[0,0.5],[1,0.5]];portConstraint=eastwest;rounded=0;shadow=0;html=0;" parent="MnSycOdXHLAEnKFS3MfO-85" vertex="1">
          <mxGeometry y="52" width="460" height="28" as="geometry" />
        </mxCell>
        <mxCell id="MnSycOdXHLAEnKFS3MfO-88" value="" style="line;html=1;strokeWidth=1;align=left;verticalAlign=middle;spacingTop=-1;spacingLeft=3;spacingRight=3;rotatable=0;labelPosition=right;points=[];portConstraint=eastwest;" parent="MnSycOdXHLAEnKFS3MfO-85" vertex="1">
          <mxGeometry y="80" width="460" height="16" as="geometry" />
        </mxCell>
        <mxCell id="MnSycOdXHLAEnKFS3MfO-89" value="+ PedidoDAO (Conexao conexao, String schema)&#xa;" style="text;align=left;verticalAlign=top;spacingLeft=4;spacingRight=4;overflow=hidden;rotatable=0;points=[[0,0.5],[1,0.5]];portConstraint=eastwest;" parent="MnSycOdXHLAEnKFS3MfO-85" vertex="1">
          <mxGeometry y="96" width="460" height="26" as="geometry" />
        </mxCell>
        <mxCell id="MnSycOdXHLAEnKFS3MfO-90" value="" style="line;html=1;strokeWidth=1;align=left;verticalAlign=middle;spacingTop=-1;spacingLeft=3;spacingRight=3;rotatable=0;labelPosition=right;points=[];portConstraint=eastwest;" parent="MnSycOdXHLAEnKFS3MfO-85" vertex="1">
          <mxGeometry y="122" width="460" height="16" as="geometry" />
        </mxCell>
        <mxCell id="MnSycOdXHLAEnKFS3MfO-91" value="- prepararSqlInclusao ()                                                        : void&#xa;" style="text;align=left;verticalAlign=top;spacingLeft=4;spacingRight=4;overflow=hidden;rotatable=0;points=[[0,0.5],[1,0.5]];portConstraint=eastwest;rounded=0;shadow=0;html=0;" parent="MnSycOdXHLAEnKFS3MfO-85" vertex="1">
          <mxGeometry y="138" width="460" height="26" as="geometry" />
        </mxCell>
        <mxCell id="MnSycOdXHLAEnKFS3MfO-92" value="- prepararSqlAlteracao ()                                                      : void&#xa;" style="text;align=left;verticalAlign=top;spacingLeft=4;spacingRight=4;overflow=hidden;rotatable=0;points=[[0,0.5],[1,0.5]];portConstraint=eastwest;rounded=0;shadow=0;html=0;" parent="MnSycOdXHLAEnKFS3MfO-85" vertex="1">
          <mxGeometry y="164" width="460" height="26" as="geometry" />
        </mxCell>
        <mxCell id="MnSycOdXHLAEnKFS3MfO-93" value="- prepararSqlExclusao ()                                                       : void&#xa;" style="text;align=left;verticalAlign=top;spacingLeft=4;spacingRight=4;overflow=hidden;rotatable=0;points=[[0,0.5],[1,0.5]];portConstraint=eastwest;rounded=0;shadow=0;html=0;" parent="MnSycOdXHLAEnKFS3MfO-85" vertex="1">
          <mxGeometry y="190" width="460" height="26" as="geometry" />
        </mxCell>
        <mxCell id="MnSycOdXHLAEnKFS3MfO-94" value="" style="line;html=1;strokeWidth=1;align=left;verticalAlign=middle;spacingTop=-1;spacingLeft=3;spacingRight=3;rotatable=0;labelPosition=right;points=[];portConstraint=eastwest;" parent="MnSycOdXHLAEnKFS3MfO-85" vertex="1">
          <mxGeometry y="216" width="460" height="16" as="geometry" />
        </mxCell>
        <mxCell id="MnSycOdXHLAEnKFS3MfO-95" value="+ incluirPedido (Pedido pedido)                                          : int&#xa;" style="text;align=left;verticalAlign=top;spacingLeft=4;spacingRight=4;overflow=hidden;rotatable=0;points=[[0,0.5],[1,0.5]];portConstraint=eastwest;rounded=0;shadow=0;html=0;" parent="MnSycOdXHLAEnKFS3MfO-85" vertex="1">
          <mxGeometry y="232" width="460" height="26" as="geometry" />
        </mxCell>
        <mxCell id="MnSycOdXHLAEnKFS3MfO-96" value="+ carregarPedido ()                                                               : ResultSet&#xa;" style="text;align=left;verticalAlign=top;spacingLeft=4;spacingRight=4;overflow=hidden;rotatable=0;points=[[0,0.5],[1,0.5]];portConstraint=eastwest;rounded=0;shadow=0;html=0;" parent="MnSycOdXHLAEnKFS3MfO-85" vertex="1">
          <mxGeometry y="258" width="460" height="26" as="geometry" />
        </mxCell>
        <mxCell id="MnSycOdXHLAEnKFS3MfO-97" value="+ carregarPedidos ()                                                             : ArrayList &lt;Pedido&gt;&#xa;" style="text;align=left;verticalAlign=top;spacingLeft=4;spacingRight=4;overflow=hidden;rotatable=0;points=[[0,0.5],[1,0.5]];portConstraint=eastwest;" parent="MnSycOdXHLAEnKFS3MfO-85" vertex="1">
          <mxGeometry y="284" width="460" height="26" as="geometry" />
        </mxCell>
        <mxCell id="MnSycOdXHLAEnKFS3MfO-99" value="+ ultimoIdPedido ()                                                                 : int&#xa;" style="text;align=left;verticalAlign=top;spacingLeft=4;spacingRight=4;overflow=hidden;rotatable=0;points=[[0,0.5],[1,0.5]];portConstraint=eastwest;" parent="MnSycOdXHLAEnKFS3MfO-85" vertex="1">
          <mxGeometry y="310" width="460" height="26" as="geometry" />
        </mxCell>
        <mxCell id="MnSycOdXHLAEnKFS3MfO-100" value="+ retornarPedidoComCliente (int id)                                   : int&#xa;" style="text;align=left;verticalAlign=top;spacingLeft=4;spacingRight=4;overflow=hidden;rotatable=0;points=[[0,0.5],[1,0.5]];portConstraint=eastwest;" parent="MnSycOdXHLAEnKFS3MfO-85" vertex="1">
          <mxGeometry y="336" width="460" height="26" as="geometry" />
        </mxCell>
        <mxCell id="MnSycOdXHLAEnKFS3MfO-101" value="+ excluirPedido (Pedido pedido)                                         : int&#xa;" style="text;align=left;verticalAlign=top;spacingLeft=4;spacingRight=4;overflow=hidden;rotatable=0;points=[[0,0.5],[1,0.5]];portConstraint=eastwest;" parent="MnSycOdXHLAEnKFS3MfO-85" vertex="1">
          <mxGeometry y="362" width="460" height="26" as="geometry" />
        </mxCell>
        <mxCell id="MnSycOdXHLAEnKFS3MfO-103" value="ProdutoCarrinhoDAO&#xa;" style="swimlane;fontStyle=0;align=center;verticalAlign=top;childLayout=stackLayout;horizontal=1;startSize=26;horizontalStack=0;resizeParent=1;resizeLast=0;collapsible=1;marginBottom=0;rounded=0;shadow=0;strokeWidth=1;fillColor=#fa6800;fontColor=#000000;strokeColor=#C73500;" parent="WIyWlLk6GJQsqaUBKTNV-1" vertex="1">
          <mxGeometry x="340" y="640" width="590" height="482" as="geometry">
            <mxRectangle x="130" y="380" width="160" height="26" as="alternateBounds" />
          </mxGeometry>
        </mxCell>
        <mxCell id="MnSycOdXHLAEnKFS3MfO-104" value="- conexao : Conexao&#xa;" style="text;align=left;verticalAlign=top;spacingLeft=4;spacingRight=4;overflow=hidden;rotatable=0;points=[[0,0.5],[1,0.5]];portConstraint=eastwest;" parent="MnSycOdXHLAEnKFS3MfO-103" vertex="1">
          <mxGeometry y="26" width="590" height="26" as="geometry" />
        </mxCell>
        <mxCell id="MnSycOdXHLAEnKFS3MfO-105" value="- schema : String&#xa;&#xa;+ " style="text;align=left;verticalAlign=top;spacingLeft=4;spacingRight=4;overflow=hidden;rotatable=0;points=[[0,0.5],[1,0.5]];portConstraint=eastwest;rounded=0;shadow=0;html=0;" parent="MnSycOdXHLAEnKFS3MfO-103" vertex="1">
          <mxGeometry y="52" width="590" height="28" as="geometry" />
        </mxCell>
        <mxCell id="MnSycOdXHLAEnKFS3MfO-106" value="" style="line;html=1;strokeWidth=1;align=left;verticalAlign=middle;spacingTop=-1;spacingLeft=3;spacingRight=3;rotatable=0;labelPosition=right;points=[];portConstraint=eastwest;" parent="MnSycOdXHLAEnKFS3MfO-103" vertex="1">
          <mxGeometry y="80" width="590" height="16" as="geometry" />
        </mxCell>
        <mxCell id="MnSycOdXHLAEnKFS3MfO-107" value="+ ProdutoCarrinhoDAO (Conexao conexao, String schema)&#xa;" style="text;align=left;verticalAlign=top;spacingLeft=4;spacingRight=4;overflow=hidden;rotatable=0;points=[[0,0.5],[1,0.5]];portConstraint=eastwest;" parent="MnSycOdXHLAEnKFS3MfO-103" vertex="1">
          <mxGeometry y="96" width="590" height="26" as="geometry" />
        </mxCell>
        <mxCell id="MnSycOdXHLAEnKFS3MfO-119" value="+ ProdutoCarrinhoDAO (Conexao conexao, String schema, int i)&#xa;" style="text;align=left;verticalAlign=top;spacingLeft=4;spacingRight=4;overflow=hidden;rotatable=0;points=[[0,0.5],[1,0.5]];portConstraint=eastwest;" parent="MnSycOdXHLAEnKFS3MfO-103" vertex="1">
          <mxGeometry y="122" width="590" height="26" as="geometry" />
        </mxCell>
        <mxCell id="MnSycOdXHLAEnKFS3MfO-108" value="" style="line;html=1;strokeWidth=1;align=left;verticalAlign=middle;spacingTop=-1;spacingLeft=3;spacingRight=3;rotatable=0;labelPosition=right;points=[];portConstraint=eastwest;" parent="MnSycOdXHLAEnKFS3MfO-103" vertex="1">
          <mxGeometry y="148" width="590" height="16" as="geometry" />
        </mxCell>
        <mxCell id="MnSycOdXHLAEnKFS3MfO-121" value="+ alterarEstoque (Produto produto)                                                       : int&#xa;" style="text;align=left;verticalAlign=top;spacingLeft=4;spacingRight=4;overflow=hidden;rotatable=0;points=[[0,0.5],[1,0.5]];portConstraint=eastwest;" parent="MnSycOdXHLAEnKFS3MfO-103" vertex="1">
          <mxGeometry y="164" width="590" height="26" as="geometry" />
        </mxCell>
        <mxCell id="MnSycOdXHLAEnKFS3MfO-122" value="+ alterarPedidoItem (ProdutoCarrinho produtocarrinho)                            : int&#xa;" style="text;align=left;verticalAlign=top;spacingLeft=4;spacingRight=4;overflow=hidden;rotatable=0;points=[[0,0.5],[1,0.5]];portConstraint=eastwest;" parent="MnSycOdXHLAEnKFS3MfO-103" vertex="1">
          <mxGeometry y="190" width="590" height="26" as="geometry" />
        </mxCell>
        <mxCell id="MnSycOdXHLAEnKFS3MfO-123" value="+ incluirProdutoCarrinho (ProdutoCarrinho produtocarrinho)                     : int&#xa;" style="text;align=left;verticalAlign=top;spacingLeft=4;spacingRight=4;overflow=hidden;rotatable=0;points=[[0,0.5],[1,0.5]];portConstraint=eastwest;" parent="MnSycOdXHLAEnKFS3MfO-103" vertex="1">
          <mxGeometry y="216" width="590" height="26" as="geometry" />
        </mxCell>
        <mxCell id="MnSycOdXHLAEnKFS3MfO-124" value="" style="line;html=1;strokeWidth=1;align=left;verticalAlign=middle;spacingTop=-1;spacingLeft=3;spacingRight=3;rotatable=0;labelPosition=right;points=[];portConstraint=eastwest;" parent="MnSycOdXHLAEnKFS3MfO-103" vertex="1">
          <mxGeometry y="242" width="590" height="16" as="geometry" />
        </mxCell>
        <mxCell id="MnSycOdXHLAEnKFS3MfO-109" value="- prepararSqlInclusaoProdutoCarrinho ()                                                 : void&#xa;" style="text;align=left;verticalAlign=top;spacingLeft=4;spacingRight=4;overflow=hidden;rotatable=0;points=[[0,0.5],[1,0.5]];portConstraint=eastwest;rounded=0;shadow=0;html=0;" parent="MnSycOdXHLAEnKFS3MfO-103" vertex="1">
          <mxGeometry y="258" width="590" height="26" as="geometry" />
        </mxCell>
        <mxCell id="MnSycOdXHLAEnKFS3MfO-110" value="- prepararSqlAlteracao ()                                                                      : void&#xa;" style="text;align=left;verticalAlign=top;spacingLeft=4;spacingRight=4;overflow=hidden;rotatable=0;points=[[0,0.5],[1,0.5]];portConstraint=eastwest;rounded=0;shadow=0;html=0;" parent="MnSycOdXHLAEnKFS3MfO-103" vertex="1">
          <mxGeometry y="284" width="590" height="26" as="geometry" />
        </mxCell>
        <mxCell id="MnSycOdXHLAEnKFS3MfO-111" value="- prepararSqlAlteracaoEstoque ()                                                          : void&#xa;" style="text;align=left;verticalAlign=top;spacingLeft=4;spacingRight=4;overflow=hidden;rotatable=0;points=[[0,0.5],[1,0.5]];portConstraint=eastwest;rounded=0;shadow=0;html=0;" parent="MnSycOdXHLAEnKFS3MfO-103" vertex="1">
          <mxGeometry y="310" width="590" height="26" as="geometry" />
        </mxCell>
        <mxCell id="MnSycOdXHLAEnKFS3MfO-112" value="" style="line;html=1;strokeWidth=1;align=left;verticalAlign=middle;spacingTop=-1;spacingLeft=3;spacingRight=3;rotatable=0;labelPosition=right;points=[];portConstraint=eastwest;" parent="MnSycOdXHLAEnKFS3MfO-103" vertex="1">
          <mxGeometry y="336" width="590" height="16" as="geometry" />
        </mxCell>
        <mxCell id="MnSycOdXHLAEnKFS3MfO-113" value="+ carregarProdutoCarrinho ()                                                                : ResultSet&#xa;" style="text;align=left;verticalAlign=top;spacingLeft=4;spacingRight=4;overflow=hidden;rotatable=0;points=[[0,0.5],[1,0.5]];portConstraint=eastwest;rounded=0;shadow=0;html=0;" parent="MnSycOdXHLAEnKFS3MfO-103" vertex="1">
          <mxGeometry y="352" width="590" height="26" as="geometry" />
        </mxCell>
        <mxCell id="MnSycOdXHLAEnKFS3MfO-114" value="+ alterarProdutoCarrinho ()                                                                   : ResultSet&#xa;" style="text;align=left;verticalAlign=top;spacingLeft=4;spacingRight=4;overflow=hidden;rotatable=0;points=[[0,0.5],[1,0.5]];portConstraint=eastwest;rounded=0;shadow=0;html=0;" parent="MnSycOdXHLAEnKFS3MfO-103" vertex="1">
          <mxGeometry y="378" width="590" height="26" as="geometry" />
        </mxCell>
        <mxCell id="MnSycOdXHLAEnKFS3MfO-115" value="+ carregarProdutoCarrinho (int id)                                                          : ProdutoCarrinho&#xa;" style="text;align=left;verticalAlign=top;spacingLeft=4;spacingRight=4;overflow=hidden;rotatable=0;points=[[0,0.5],[1,0.5]];portConstraint=eastwest;" parent="MnSycOdXHLAEnKFS3MfO-103" vertex="1">
          <mxGeometry y="404" width="590" height="26" as="geometry" />
        </mxCell>
        <mxCell id="MnSycOdXHLAEnKFS3MfO-116" value="+ carregarProdutoMenuItems (ind id)                                                     : ArrayList &lt;ProdutoCarrinho&gt;&#xa;" style="text;align=left;verticalAlign=top;spacingLeft=4;spacingRight=4;overflow=hidden;rotatable=0;points=[[0,0.5],[1,0.5]];portConstraint=eastwest;" parent="MnSycOdXHLAEnKFS3MfO-103" vertex="1">
          <mxGeometry y="430" width="590" height="26" as="geometry" />
        </mxCell>
        <mxCell id="MnSycOdXHLAEnKFS3MfO-120" value="+ listarProdutosNoPedidoSelecionado  (ind id)                                       : ArrayList &lt;ProdutoCarrinho&gt;&#xa;" style="text;align=left;verticalAlign=top;spacingLeft=4;spacingRight=4;overflow=hidden;rotatable=0;points=[[0,0.5],[1,0.5]];portConstraint=eastwest;" parent="MnSycOdXHLAEnKFS3MfO-103" vertex="1">
          <mxGeometry y="456" width="590" height="26" as="geometry" />
        </mxCell>
        <mxCell id="MnSycOdXHLAEnKFS3MfO-125" value="ProdutoDAO&#xa;" style="swimlane;fontStyle=0;align=center;verticalAlign=top;childLayout=stackLayout;horizontal=1;startSize=26;horizontalStack=0;resizeParent=1;resizeLast=0;collapsible=1;marginBottom=0;rounded=0;shadow=0;strokeWidth=1;fillColor=#fa6800;fontColor=#000000;strokeColor=#C73500;" parent="WIyWlLk6GJQsqaUBKTNV-1" vertex="1">
          <mxGeometry x="2660" y="20" width="480" height="392" as="geometry">
            <mxRectangle x="130" y="380" width="160" height="26" as="alternateBounds" />
          </mxGeometry>
        </mxCell>
        <mxCell id="MnSycOdXHLAEnKFS3MfO-126" value="- conexao : Conexao&#xa;" style="text;align=left;verticalAlign=top;spacingLeft=4;spacingRight=4;overflow=hidden;rotatable=0;points=[[0,0.5],[1,0.5]];portConstraint=eastwest;" parent="MnSycOdXHLAEnKFS3MfO-125" vertex="1">
          <mxGeometry y="26" width="480" height="26" as="geometry" />
        </mxCell>
        <mxCell id="MnSycOdXHLAEnKFS3MfO-127" value="- schema : String&#xa;&#xa;+ " style="text;align=left;verticalAlign=top;spacingLeft=4;spacingRight=4;overflow=hidden;rotatable=0;points=[[0,0.5],[1,0.5]];portConstraint=eastwest;rounded=0;shadow=0;html=0;" parent="MnSycOdXHLAEnKFS3MfO-125" vertex="1">
          <mxGeometry y="52" width="480" height="28" as="geometry" />
        </mxCell>
        <mxCell id="MnSycOdXHLAEnKFS3MfO-128" value="" style="line;html=1;strokeWidth=1;align=left;verticalAlign=middle;spacingTop=-1;spacingLeft=3;spacingRight=3;rotatable=0;labelPosition=right;points=[];portConstraint=eastwest;" parent="MnSycOdXHLAEnKFS3MfO-125" vertex="1">
          <mxGeometry y="80" width="480" height="16" as="geometry" />
        </mxCell>
        <mxCell id="MnSycOdXHLAEnKFS3MfO-129" value="+ ProdutoDAO (Conexao conexao, String schema)&#xa;" style="text;align=left;verticalAlign=top;spacingLeft=4;spacingRight=4;overflow=hidden;rotatable=0;points=[[0,0.5],[1,0.5]];portConstraint=eastwest;" parent="MnSycOdXHLAEnKFS3MfO-125" vertex="1">
          <mxGeometry y="96" width="480" height="26" as="geometry" />
        </mxCell>
        <mxCell id="MnSycOdXHLAEnKFS3MfO-131" value="" style="line;html=1;strokeWidth=1;align=left;verticalAlign=middle;spacingTop=-1;spacingLeft=3;spacingRight=3;rotatable=0;labelPosition=right;points=[];portConstraint=eastwest;" parent="MnSycOdXHLAEnKFS3MfO-125" vertex="1">
          <mxGeometry y="122" width="480" height="16" as="geometry" />
        </mxCell>
        <mxCell id="MnSycOdXHLAEnKFS3MfO-136" value="- prepararSqlInclusao ()                                                      : void&#xa;" style="text;align=left;verticalAlign=top;spacingLeft=4;spacingRight=4;overflow=hidden;rotatable=0;points=[[0,0.5],[1,0.5]];portConstraint=eastwest;rounded=0;shadow=0;html=0;" parent="MnSycOdXHLAEnKFS3MfO-125" vertex="1">
          <mxGeometry y="138" width="480" height="26" as="geometry" />
        </mxCell>
        <mxCell id="MnSycOdXHLAEnKFS3MfO-137" value="- prepararSqlAlteracao ()                                                    : void&#xa;" style="text;align=left;verticalAlign=top;spacingLeft=4;spacingRight=4;overflow=hidden;rotatable=0;points=[[0,0.5],[1,0.5]];portConstraint=eastwest;rounded=0;shadow=0;html=0;" parent="MnSycOdXHLAEnKFS3MfO-125" vertex="1">
          <mxGeometry y="164" width="480" height="26" as="geometry" />
        </mxCell>
        <mxCell id="MnSycOdXHLAEnKFS3MfO-138" value="- prepararSqlExclusao ()                                                    : void&#xa;" style="text;align=left;verticalAlign=top;spacingLeft=4;spacingRight=4;overflow=hidden;rotatable=0;points=[[0,0.5],[1,0.5]];portConstraint=eastwest;rounded=0;shadow=0;html=0;" parent="MnSycOdXHLAEnKFS3MfO-125" vertex="1">
          <mxGeometry y="190" width="480" height="26" as="geometry" />
        </mxCell>
        <mxCell id="MnSycOdXHLAEnKFS3MfO-139" value="" style="line;html=1;strokeWidth=1;align=left;verticalAlign=middle;spacingTop=-1;spacingLeft=3;spacingRight=3;rotatable=0;labelPosition=right;points=[];portConstraint=eastwest;" parent="MnSycOdXHLAEnKFS3MfO-125" vertex="1">
          <mxGeometry y="216" width="480" height="16" as="geometry" />
        </mxCell>
        <mxCell id="MnSycOdXHLAEnKFS3MfO-140" value="+ incluirProduto (Produto produto)                                      : int&#xa;" style="text;align=left;verticalAlign=top;spacingLeft=4;spacingRight=4;overflow=hidden;rotatable=0;points=[[0,0.5],[1,0.5]];portConstraint=eastwest;rounded=0;shadow=0;html=0;" parent="MnSycOdXHLAEnKFS3MfO-125" vertex="1">
          <mxGeometry y="232" width="480" height="26" as="geometry" />
        </mxCell>
        <mxCell id="MnSycOdXHLAEnKFS3MfO-141" value="+ alterarProduto (Produto produto)                                      : int&#xa;" style="text;align=left;verticalAlign=top;spacingLeft=4;spacingRight=4;overflow=hidden;rotatable=0;points=[[0,0.5],[1,0.5]];portConstraint=eastwest;rounded=0;shadow=0;html=0;" parent="MnSycOdXHLAEnKFS3MfO-125" vertex="1">
          <mxGeometry y="258" width="480" height="26" as="geometry" />
        </mxCell>
        <mxCell id="MnSycOdXHLAEnKFS3MfO-142" value="+ excluirProduto (Produto produto)                                     : int&#xa;" style="text;align=left;verticalAlign=top;spacingLeft=4;spacingRight=4;overflow=hidden;rotatable=0;points=[[0,0.5],[1,0.5]];portConstraint=eastwest;" parent="MnSycOdXHLAEnKFS3MfO-125" vertex="1">
          <mxGeometry y="284" width="480" height="26" as="geometry" />
        </mxCell>
        <mxCell id="MnSycOdXHLAEnKFS3MfO-143" value="+ carregarProduto()                                                           : ResultSet&#xa;" style="text;align=left;verticalAlign=top;spacingLeft=4;spacingRight=4;overflow=hidden;rotatable=0;points=[[0,0.5],[1,0.5]];portConstraint=eastwest;" parent="MnSycOdXHLAEnKFS3MfO-125" vertex="1">
          <mxGeometry y="310" width="480" height="26" as="geometry" />
        </mxCell>
        <mxCell id="MnSycOdXHLAEnKFS3MfO-144" value="+ carregarProdutoMenu  ()                                                 : ArrayList &lt;Produto&gt;&#xa;" style="text;align=left;verticalAlign=top;spacingLeft=4;spacingRight=4;overflow=hidden;rotatable=0;points=[[0,0.5],[1,0.5]];portConstraint=eastwest;" parent="MnSycOdXHLAEnKFS3MfO-125" vertex="1">
          <mxGeometry y="336" width="480" height="26" as="geometry" />
        </mxCell>
        <mxCell id="MnSycOdXHLAEnKFS3MfO-145" value="+ carregarProdutoMenu2 (int id)                                         : Produto&#xa;" style="text;align=left;verticalAlign=top;spacingLeft=4;spacingRight=4;overflow=hidden;rotatable=0;points=[[0,0.5],[1,0.5]];portConstraint=eastwest;" parent="MnSycOdXHLAEnKFS3MfO-125" vertex="1">
          <mxGeometry y="362" width="480" height="26" as="geometry" />
        </mxCell>
        <mxCell id="wJNEALnFPRHk9ui76Nys-3" value="Extends" style="endArrow=block;endSize=16;endFill=0;html=1;rounded=0;entryX=1;entryY=0.5;entryDx=0;entryDy=0;exitX=0;exitY=0.5;exitDx=0;exitDy=0;" parent="WIyWlLk6GJQsqaUBKTNV-1" source="zkfFHV4jXpPFQw0GAbJ--7" target="uS8OOOCSnNwOLfQj2_W_-189" edge="1">
          <mxGeometry width="160" relative="1" as="geometry">
            <mxPoint x="100" y="1090" as="sourcePoint" />
            <mxPoint x="260" y="1090" as="targetPoint" />
          </mxGeometry>
        </mxCell>
        <mxCell id="wJNEALnFPRHk9ui76Nys-4" value="Conexao" style="swimlane;fontStyle=0;align=center;verticalAlign=top;childLayout=stackLayout;horizontal=1;startSize=26;horizontalStack=0;resizeParent=1;resizeLast=0;collapsible=1;marginBottom=0;rounded=0;shadow=0;strokeWidth=1;fillColor=#76608a;fontColor=#000000;strokeColor=#432D57;" parent="WIyWlLk6GJQsqaUBKTNV-1" vertex="1">
          <mxGeometry x="1170" y="1390" width="460" height="868" as="geometry">
            <mxRectangle x="130" y="380" width="160" height="26" as="alternateBounds" />
          </mxGeometry>
        </mxCell>
        <mxCell id="wJNEALnFPRHk9ui76Nys-5" value="- local : String&#xa;&#xa;" style="text;align=left;verticalAlign=top;spacingLeft=4;spacingRight=4;overflow=hidden;rotatable=0;points=[[0,0.5],[1,0.5]];portConstraint=eastwest;" parent="wJNEALnFPRHk9ui76Nys-4" vertex="1">
          <mxGeometry y="26" width="460" height="26" as="geometry" />
        </mxCell>
        <mxCell id="wJNEALnFPRHk9ui76Nys-6" value="- senha : String&#xa;&#xa;+ " style="text;align=left;verticalAlign=top;spacingLeft=4;spacingRight=4;overflow=hidden;rotatable=0;points=[[0,0.5],[1,0.5]];portConstraint=eastwest;rounded=0;shadow=0;html=0;" parent="wJNEALnFPRHk9ui76Nys-4" vertex="1">
          <mxGeometry y="52" width="460" height="28" as="geometry" />
        </mxCell>
        <mxCell id="wJNEALnFPRHk9ui76Nys-20" value="- user : String&#xa;&#xa;+ " style="text;align=left;verticalAlign=top;spacingLeft=4;spacingRight=4;overflow=hidden;rotatable=0;points=[[0,0.5],[1,0.5]];portConstraint=eastwest;rounded=0;shadow=0;html=0;" parent="wJNEALnFPRHk9ui76Nys-4" vertex="1">
          <mxGeometry y="80" width="460" height="28" as="geometry" />
        </mxCell>
        <mxCell id="wJNEALnFPRHk9ui76Nys-21" value="- c : Connection&#xa;&#xa;+ " style="text;align=left;verticalAlign=top;spacingLeft=4;spacingRight=4;overflow=hidden;rotatable=0;points=[[0,0.5],[1,0.5]];portConstraint=eastwest;rounded=0;shadow=0;html=0;" parent="wJNEALnFPRHk9ui76Nys-4" vertex="1">
          <mxGeometry y="108" width="460" height="28" as="geometry" />
        </mxCell>
        <mxCell id="wJNEALnFPRHk9ui76Nys-22" value="- statment : Statement&#xa;&#xa;&#xa;+ " style="text;align=left;verticalAlign=top;spacingLeft=4;spacingRight=4;overflow=hidden;rotatable=0;points=[[0,0.5],[1,0.5]];portConstraint=eastwest;rounded=0;shadow=0;html=0;" parent="wJNEALnFPRHk9ui76Nys-4" vertex="1">
          <mxGeometry y="136" width="460" height="28" as="geometry" />
        </mxCell>
        <mxCell id="wJNEALnFPRHk9ui76Nys-23" value="- str_conexao : String&#xa;&#xa;+ " style="text;align=left;verticalAlign=top;spacingLeft=4;spacingRight=4;overflow=hidden;rotatable=0;points=[[0,0.5],[1,0.5]];portConstraint=eastwest;rounded=0;shadow=0;html=0;" parent="wJNEALnFPRHk9ui76Nys-4" vertex="1">
          <mxGeometry y="164" width="460" height="28" as="geometry" />
        </mxCell>
        <mxCell id="wJNEALnFPRHk9ui76Nys-24" value="- driverjdbc : String&#xa;&#xa;+ " style="text;align=left;verticalAlign=top;spacingLeft=4;spacingRight=4;overflow=hidden;rotatable=0;points=[[0,0.5],[1,0.5]];portConstraint=eastwest;rounded=0;shadow=0;html=0;" parent="wJNEALnFPRHk9ui76Nys-4" vertex="1">
          <mxGeometry y="192" width="460" height="28" as="geometry" />
        </mxCell>
        <mxCell id="wJNEALnFPRHk9ui76Nys-7" value="" style="line;html=1;strokeWidth=1;align=left;verticalAlign=middle;spacingTop=-1;spacingLeft=3;spacingRight=3;rotatable=0;labelPosition=right;points=[];portConstraint=eastwest;" parent="wJNEALnFPRHk9ui76Nys-4" vertex="1">
          <mxGeometry y="220" width="460" height="16" as="geometry" />
        </mxCell>
        <mxCell id="wJNEALnFPRHk9ui76Nys-8" value="+ Conexao (DadosConexao dados)&#xa;" style="text;align=left;verticalAlign=top;spacingLeft=4;spacingRight=4;overflow=hidden;rotatable=0;points=[[0,0.5],[1,0.5]];portConstraint=eastwest;" parent="wJNEALnFPRHk9ui76Nys-4" vertex="1">
          <mxGeometry y="236" width="460" height="26" as="geometry" />
        </mxCell>
        <mxCell id="wJNEALnFPRHk9ui76Nys-9" value="" style="line;html=1;strokeWidth=1;align=left;verticalAlign=middle;spacingTop=-1;spacingLeft=3;spacingRight=3;rotatable=0;labelPosition=right;points=[];portConstraint=eastwest;" parent="wJNEALnFPRHk9ui76Nys-4" vertex="1">
          <mxGeometry y="262" width="460" height="16" as="geometry" />
        </mxCell>
        <mxCell id="wJNEALnFPRHk9ui76Nys-10" value="+ configUser (String user, String senha)                                : void&#xa;" style="text;align=left;verticalAlign=top;spacingLeft=4;spacingRight=4;overflow=hidden;rotatable=0;points=[[0,0.5],[1,0.5]];portConstraint=eastwest;rounded=0;shadow=0;html=0;" parent="wJNEALnFPRHk9ui76Nys-4" vertex="1">
          <mxGeometry y="278" width="460" height="26" as="geometry" />
        </mxCell>
        <mxCell id="wJNEALnFPRHk9ui76Nys-11" value="+ configLocal (String banco)                                                  : void&#xa;" style="text;align=left;verticalAlign=top;spacingLeft=4;spacingRight=4;overflow=hidden;rotatable=0;points=[[0,0.5],[1,0.5]];portConstraint=eastwest;rounded=0;shadow=0;html=0;" parent="wJNEALnFPRHk9ui76Nys-4" vertex="1">
          <mxGeometry y="304" width="460" height="26" as="geometry" />
        </mxCell>
        <mxCell id="wJNEALnFPRHk9ui76Nys-25" value="" style="line;html=1;strokeWidth=1;align=left;verticalAlign=middle;spacingTop=-1;spacingLeft=3;spacingRight=3;rotatable=0;labelPosition=right;points=[];portConstraint=eastwest;" parent="wJNEALnFPRHk9ui76Nys-4" vertex="1">
          <mxGeometry y="330" width="460" height="16" as="geometry" />
        </mxCell>
        <mxCell id="wJNEALnFPRHk9ui76Nys-12" value="+ conect ()                                                                             : void&#xa;" style="text;align=left;verticalAlign=top;spacingLeft=4;spacingRight=4;overflow=hidden;rotatable=0;points=[[0,0.5],[1,0.5]];portConstraint=eastwest;rounded=0;shadow=0;html=0;" parent="wJNEALnFPRHk9ui76Nys-4" vertex="1">
          <mxGeometry y="346" width="460" height="26" as="geometry" />
        </mxCell>
        <mxCell id="wJNEALnFPRHk9ui76Nys-14" value="+ disconect ()                                                                        : void&#xa;" style="text;align=left;verticalAlign=top;spacingLeft=4;spacingRight=4;overflow=hidden;rotatable=0;points=[[0,0.5],[1,0.5]];portConstraint=eastwest;rounded=0;shadow=0;html=0;" parent="wJNEALnFPRHk9ui76Nys-4" vertex="1">
          <mxGeometry y="372" width="460" height="26" as="geometry" />
        </mxCell>
        <mxCell id="wJNEALnFPRHk9ui76Nys-13" value="" style="line;html=1;strokeWidth=1;align=left;verticalAlign=middle;spacingTop=-1;spacingLeft=3;spacingRight=3;rotatable=0;labelPosition=right;points=[];portConstraint=eastwest;" parent="wJNEALnFPRHk9ui76Nys-4" vertex="1">
          <mxGeometry y="398" width="460" height="16" as="geometry" />
        </mxCell>
        <mxCell id="wJNEALnFPRHk9ui76Nys-15" value="+ query (String query)                                                           : ResultSet&#xa;" style="text;align=left;verticalAlign=top;spacingLeft=4;spacingRight=4;overflow=hidden;rotatable=0;points=[[0,0.5],[1,0.5]];portConstraint=eastwest;rounded=0;shadow=0;html=0;" parent="wJNEALnFPRHk9ui76Nys-4" vertex="1">
          <mxGeometry y="414" width="460" height="26" as="geometry" />
        </mxCell>
        <mxCell id="wJNEALnFPRHk9ui76Nys-16" value="+ getLocal ()                                                                          : String&#xa;" style="text;align=left;verticalAlign=top;spacingLeft=4;spacingRight=4;overflow=hidden;rotatable=0;points=[[0,0.5],[1,0.5]];portConstraint=eastwest;" parent="wJNEALnFPRHk9ui76Nys-4" vertex="1">
          <mxGeometry y="440" width="460" height="26" as="geometry" />
        </mxCell>
        <mxCell id="wJNEALnFPRHk9ui76Nys-17" value="+ setLocal (String local)                                                         : void&#xa;" style="text;align=left;verticalAlign=top;spacingLeft=4;spacingRight=4;overflow=hidden;rotatable=0;points=[[0,0.5],[1,0.5]];portConstraint=eastwest;" parent="wJNEALnFPRHk9ui76Nys-4" vertex="1">
          <mxGeometry y="466" width="460" height="26" as="geometry" />
        </mxCell>
        <mxCell id="wJNEALnFPRHk9ui76Nys-18" value="+ getUser ()                                                                           : String&#xa;" style="text;align=left;verticalAlign=top;spacingLeft=4;spacingRight=4;overflow=hidden;rotatable=0;points=[[0,0.5],[1,0.5]];portConstraint=eastwest;" parent="wJNEALnFPRHk9ui76Nys-4" vertex="1">
          <mxGeometry y="492" width="460" height="26" as="geometry" />
        </mxCell>
        <mxCell id="wJNEALnFPRHk9ui76Nys-19" value="+ setUser (String user)                                                          : void&#xa;" style="text;align=left;verticalAlign=top;spacingLeft=4;spacingRight=4;overflow=hidden;rotatable=0;points=[[0,0.5],[1,0.5]];portConstraint=eastwest;" parent="wJNEALnFPRHk9ui76Nys-4" vertex="1">
          <mxGeometry y="518" width="460" height="26" as="geometry" />
        </mxCell>
        <mxCell id="wJNEALnFPRHk9ui76Nys-26" value="+ getSenha ()                                                                        : String&#xa;" style="text;align=left;verticalAlign=top;spacingLeft=4;spacingRight=4;overflow=hidden;rotatable=0;points=[[0,0.5],[1,0.5]];portConstraint=eastwest;" parent="wJNEALnFPRHk9ui76Nys-4" vertex="1">
          <mxGeometry y="544" width="460" height="26" as="geometry" />
        </mxCell>
        <mxCell id="wJNEALnFPRHk9ui76Nys-27" value="+ setSenha (String senha)                                                    : void&#xa;" style="text;align=left;verticalAlign=top;spacingLeft=4;spacingRight=4;overflow=hidden;rotatable=0;points=[[0,0.5],[1,0.5]];portConstraint=eastwest;" parent="wJNEALnFPRHk9ui76Nys-4" vertex="1">
          <mxGeometry y="570" width="460" height="26" as="geometry" />
        </mxCell>
        <mxCell id="wJNEALnFPRHk9ui76Nys-36" value="" style="line;html=1;strokeWidth=1;align=left;verticalAlign=middle;spacingTop=-1;spacingLeft=3;spacingRight=3;rotatable=0;labelPosition=right;points=[];portConstraint=eastwest;" parent="wJNEALnFPRHk9ui76Nys-4" vertex="1">
          <mxGeometry y="596" width="460" height="16" as="geometry" />
        </mxCell>
        <mxCell id="wJNEALnFPRHk9ui76Nys-28" value="+ getC ()                                                                                : Connection&#xa;" style="text;align=left;verticalAlign=top;spacingLeft=4;spacingRight=4;overflow=hidden;rotatable=0;points=[[0,0.5],[1,0.5]];portConstraint=eastwest;" parent="wJNEALnFPRHk9ui76Nys-4" vertex="1">
          <mxGeometry y="612" width="460" height="26" as="geometry" />
        </mxCell>
        <mxCell id="wJNEALnFPRHk9ui76Nys-29" value="+ setC (Connection c)                                                           : void&#xa;" style="text;align=left;verticalAlign=top;spacingLeft=4;spacingRight=4;overflow=hidden;rotatable=0;points=[[0,0.5],[1,0.5]];portConstraint=eastwest;" parent="wJNEALnFPRHk9ui76Nys-4" vertex="1">
          <mxGeometry y="638" width="460" height="26" as="geometry" />
        </mxCell>
        <mxCell id="wJNEALnFPRHk9ui76Nys-37" value="" style="line;html=1;strokeWidth=1;align=left;verticalAlign=middle;spacingTop=-1;spacingLeft=3;spacingRight=3;rotatable=0;labelPosition=right;points=[];portConstraint=eastwest;" parent="wJNEALnFPRHk9ui76Nys-4" vertex="1">
          <mxGeometry y="664" width="460" height="16" as="geometry" />
        </mxCell>
        <mxCell id="wJNEALnFPRHk9ui76Nys-30" value="+ getStatment ()                                                                    : Statement&#xa;&#xa;" style="text;align=left;verticalAlign=top;spacingLeft=4;spacingRight=4;overflow=hidden;rotatable=0;points=[[0,0.5],[1,0.5]];portConstraint=eastwest;" parent="wJNEALnFPRHk9ui76Nys-4" vertex="1">
          <mxGeometry y="680" width="460" height="26" as="geometry" />
        </mxCell>
        <mxCell id="wJNEALnFPRHk9ui76Nys-31" value="+ setStatment (Statement statement)                                    : void&#xa;&#xa;" style="text;align=left;verticalAlign=top;spacingLeft=4;spacingRight=4;overflow=hidden;rotatable=0;points=[[0,0.5],[1,0.5]];portConstraint=eastwest;" parent="wJNEALnFPRHk9ui76Nys-4" vertex="1">
          <mxGeometry y="706" width="460" height="26" as="geometry" />
        </mxCell>
        <mxCell id="wJNEALnFPRHk9ui76Nys-38" value="" style="line;html=1;strokeWidth=1;align=left;verticalAlign=middle;spacingTop=-1;spacingLeft=3;spacingRight=3;rotatable=0;labelPosition=right;points=[];portConstraint=eastwest;" parent="wJNEALnFPRHk9ui76Nys-4" vertex="1">
          <mxGeometry y="732" width="460" height="16" as="geometry" />
        </mxCell>
        <mxCell id="wJNEALnFPRHk9ui76Nys-32" value="+ getStr_conexao ()                                                               : String&#xa;" style="text;align=left;verticalAlign=top;spacingLeft=4;spacingRight=4;overflow=hidden;rotatable=0;points=[[0,0.5],[1,0.5]];portConstraint=eastwest;" parent="wJNEALnFPRHk9ui76Nys-4" vertex="1">
          <mxGeometry y="748" width="460" height="26" as="geometry" />
        </mxCell>
        <mxCell id="wJNEALnFPRHk9ui76Nys-33" value="+ setStr_conexao (String str_conexao)                                  : void&#xa;" style="text;align=left;verticalAlign=top;spacingLeft=4;spacingRight=4;overflow=hidden;rotatable=0;points=[[0,0.5],[1,0.5]];portConstraint=eastwest;" parent="wJNEALnFPRHk9ui76Nys-4" vertex="1">
          <mxGeometry y="774" width="460" height="26" as="geometry" />
        </mxCell>
        <mxCell id="wJNEALnFPRHk9ui76Nys-39" value="" style="line;html=1;strokeWidth=1;align=left;verticalAlign=middle;spacingTop=-1;spacingLeft=3;spacingRight=3;rotatable=0;labelPosition=right;points=[];portConstraint=eastwest;" parent="wJNEALnFPRHk9ui76Nys-4" vertex="1">
          <mxGeometry y="800" width="460" height="16" as="geometry" />
        </mxCell>
        <mxCell id="wJNEALnFPRHk9ui76Nys-34" value="+ getDriverjdbc ()                                                                  : String&#xa;" style="text;align=left;verticalAlign=top;spacingLeft=4;spacingRight=4;overflow=hidden;rotatable=0;points=[[0,0.5],[1,0.5]];portConstraint=eastwest;" parent="wJNEALnFPRHk9ui76Nys-4" vertex="1">
          <mxGeometry y="816" width="460" height="26" as="geometry" />
        </mxCell>
        <mxCell id="wJNEALnFPRHk9ui76Nys-35" value="+ setDriverjdbc (String driverjdbc)                                         : void&#xa;" style="text;align=left;verticalAlign=top;spacingLeft=4;spacingRight=4;overflow=hidden;rotatable=0;points=[[0,0.5],[1,0.5]];portConstraint=eastwest;" parent="wJNEALnFPRHk9ui76Nys-4" vertex="1">
          <mxGeometry y="842" width="460" height="26" as="geometry" />
        </mxCell>
        <mxCell id="wJNEALnFPRHk9ui76Nys-42" value="" style="endArrow=diamondThin;endFill=1;endSize=24;html=1;rounded=0;entryX=1.003;entryY=0.848;entryDx=0;entryDy=0;exitX=0;exitY=0.5;exitDx=0;exitDy=0;entryPerimeter=0;" parent="WIyWlLk6GJQsqaUBKTNV-1" source="uS8OOOCSnNwOLfQj2_W_-96" target="MnSycOdXHLAEnKFS3MfO-123" edge="1">
          <mxGeometry width="160" relative="1" as="geometry">
            <mxPoint x="1230" y="1782" as="sourcePoint" />
            <mxPoint x="1230" y="1580" as="targetPoint" />
          </mxGeometry>
        </mxCell>
        <mxCell id="wJNEALnFPRHk9ui76Nys-44" value="" style="endArrow=diamondThin;endFill=1;endSize=24;html=1;rounded=0;exitX=0.5;exitY=0;exitDx=0;exitDy=0;" parent="WIyWlLk6GJQsqaUBKTNV-1" source="MnSycOdXHLAEnKFS3MfO-125" edge="1">
          <mxGeometry width="160" relative="1" as="geometry">
            <mxPoint x="3360" y="700" as="sourcePoint" />
            <mxPoint x="2900" y="-190" as="targetPoint" />
          </mxGeometry>
        </mxCell>
        <mxCell id="wJNEALnFPRHk9ui76Nys-45" value="" style="endArrow=diamondThin;endFill=1;endSize=24;html=1;rounded=0;entryX=0.5;entryY=1;entryDx=0;entryDy=0;exitX=0.5;exitY=0;exitDx=0;exitDy=0;" parent="WIyWlLk6GJQsqaUBKTNV-1" source="MnSycOdXHLAEnKFS3MfO-0" target="uS8OOOCSnNwOLfQj2_W_-24" edge="1">
          <mxGeometry width="160" relative="1" as="geometry">
            <mxPoint x="3890" y="1150" as="sourcePoint" />
            <mxPoint x="3600" y="350" as="targetPoint" />
          </mxGeometry>
        </mxCell>
        <mxCell id="wJNEALnFPRHk9ui76Nys-46" value="" style="endArrow=diamondThin;endFill=1;endSize=24;html=1;rounded=0;entryX=0.5;entryY=0;entryDx=0;entryDy=0;exitX=0.5;exitY=1;exitDx=0;exitDy=0;" parent="WIyWlLk6GJQsqaUBKTNV-1" source="MnSycOdXHLAEnKFS3MfO-17" target="uS8OOOCSnNwOLfQj2_W_-82" edge="1">
          <mxGeometry width="160" relative="1" as="geometry">
            <mxPoint x="810" y="-490" as="sourcePoint" />
            <mxPoint x="240" y="90" as="targetPoint" />
          </mxGeometry>
        </mxCell>
        <mxCell id="wJNEALnFPRHk9ui76Nys-48" value="" style="endArrow=diamondThin;endFill=1;endSize=24;html=1;rounded=0;exitX=0.5;exitY=0;exitDx=0;exitDy=0;entryX=0.5;entryY=1;entryDx=0;entryDy=0;" parent="WIyWlLk6GJQsqaUBKTNV-1" source="MnSycOdXHLAEnKFS3MfO-85" target="uS8OOOCSnNwOLfQj2_W_-148" edge="1">
          <mxGeometry width="160" relative="1" as="geometry">
            <mxPoint x="3485" y="1000" as="sourcePoint" />
            <mxPoint x="2140" y="1090" as="targetPoint" />
          </mxGeometry>
        </mxCell>
        <mxCell id="wJNEALnFPRHk9ui76Nys-61" value="" style="endArrow=diamondThin;endFill=1;endSize=24;html=1;rounded=0;exitX=1;exitY=0.5;exitDx=0;exitDy=0;entryX=0;entryY=0.5;entryDx=0;entryDy=0;" parent="WIyWlLk6GJQsqaUBKTNV-1" source="uS8OOOCSnNwOLfQj2_W_-213" target="uS8OOOCSnNwOLfQj2_W_-25" edge="1">
          <mxGeometry width="160" relative="1" as="geometry">
            <mxPoint x="3210" y="-600" as="sourcePoint" />
            <mxPoint x="3300" y="-270" as="targetPoint" />
          </mxGeometry>
        </mxCell>
        <mxCell id="wJNEALnFPRHk9ui76Nys-62" value="" style="endArrow=diamondThin;endFill=1;endSize=24;html=1;rounded=0;exitX=0.5;exitY=0;exitDx=0;exitDy=0;entryX=0.505;entryY=1.2;entryDx=0;entryDy=0;entryPerimeter=0;" parent="WIyWlLk6GJQsqaUBKTNV-1" source="uS8OOOCSnNwOLfQj2_W_-148" target="uS8OOOCSnNwOLfQj2_W_-128" edge="1">
          <mxGeometry width="160" relative="1" as="geometry">
            <mxPoint x="2830" y="340" as="sourcePoint" />
            <mxPoint x="2700" y="550" as="targetPoint" />
          </mxGeometry>
        </mxCell>
        <mxCell id="wJNEALnFPRHk9ui76Nys-63" value="" style="endArrow=diamondThin;endFill=1;endSize=24;html=1;rounded=0;exitX=0;exitY=0.5;exitDx=0;exitDy=0;entryX=1;entryY=0.5;entryDx=0;entryDy=0;" parent="WIyWlLk6GJQsqaUBKTNV-1" source="uS8OOOCSnNwOLfQj2_W_-211" target="uS8OOOCSnNwOLfQj2_W_-135" edge="1">
          <mxGeometry width="160" relative="1" as="geometry">
            <mxPoint x="2430" y="-470" as="sourcePoint" />
            <mxPoint x="2420" y="-367" as="targetPoint" />
          </mxGeometry>
        </mxCell>
        <mxCell id="wJNEALnFPRHk9ui76Nys-64" value="" style="endArrow=diamondThin;endFill=1;endSize=24;html=1;rounded=0;exitX=1;exitY=0.5;exitDx=0;exitDy=0;entryX=0;entryY=0.5;entryDx=0;entryDy=0;" parent="WIyWlLk6GJQsqaUBKTNV-1" source="zkfFHV4jXpPFQw0GAbJ--7" target="uS8OOOCSnNwOLfQj2_W_-85" edge="1">
          <mxGeometry width="160" relative="1" as="geometry">
            <mxPoint x="450" y="-180" as="sourcePoint" />
            <mxPoint x="580" y="-130" as="targetPoint" />
          </mxGeometry>
        </mxCell>
        <mxCell id="wJNEALnFPRHk9ui76Nys-68" value="" style="endArrow=diamondThin;endFill=1;endSize=24;html=1;rounded=0;exitX=0;exitY=0.5;exitDx=0;exitDy=0;entryX=1;entryY=0.5;entryDx=0;entryDy=0;" parent="WIyWlLk6GJQsqaUBKTNV-1" source="uS8OOOCSnNwOLfQj2_W_-43" target="zkfFHV4jXpPFQw0GAbJ--18" edge="1">
          <mxGeometry width="160" relative="1" as="geometry">
            <mxPoint x="1020" y="-170" as="sourcePoint" />
            <mxPoint x="1000" y="50" as="targetPoint" />
            <Array as="points">
              <mxPoint x="790" y="159" />
            </Array>
          </mxGeometry>
        </mxCell>
        <mxCell id="wJNEALnFPRHk9ui76Nys-69" value="" style="endArrow=diamondThin;endFill=1;endSize=24;html=1;rounded=0;exitX=0;exitY=0.5;exitDx=0;exitDy=0;entryX=1;entryY=0.5;entryDx=0;entryDy=0;" parent="WIyWlLk6GJQsqaUBKTNV-1" source="uS8OOOCSnNwOLfQj2_W_-184" target="uS8OOOCSnNwOLfQj2_W_-161" edge="1">
          <mxGeometry width="160" relative="1" as="geometry">
            <mxPoint x="2240" y="550" as="sourcePoint" />
            <mxPoint x="2400" y="550" as="targetPoint" />
          </mxGeometry>
        </mxCell>
        <mxCell id="wJNEALnFPRHk9ui76Nys-70" value="Relation" style="endArrow=open;html=1;endSize=12;startArrow=diamondThin;startSize=14;startFill=0;edgeStyle=orthogonalEdgeStyle;rounded=0;exitX=0;exitY=0.5;exitDx=0;exitDy=0;entryX=1.002;entryY=0.195;entryDx=0;entryDy=0;entryPerimeter=0;" parent="WIyWlLk6GJQsqaUBKTNV-1" source="uS8OOOCSnNwOLfQj2_W_-88" target="uS8OOOCSnNwOLfQj2_W_-6" edge="1">
          <mxGeometry y="-20" relative="1" as="geometry">
            <mxPoint x="440" y="-115.59" as="sourcePoint" />
            <mxPoint x="430" y="-160" as="targetPoint" />
            <mxPoint as="offset" />
          </mxGeometry>
        </mxCell>
        <mxCell id="wJNEALnFPRHk9ui76Nys-71" value="0..n" style="edgeLabel;resizable=0;html=1;align=left;verticalAlign=top;" parent="wJNEALnFPRHk9ui76Nys-70" connectable="0" vertex="1">
          <mxGeometry x="-1" relative="1" as="geometry" />
        </mxCell>
        <mxCell id="wJNEALnFPRHk9ui76Nys-72" value="1" style="edgeLabel;resizable=0;html=1;align=right;verticalAlign=top;" parent="wJNEALnFPRHk9ui76Nys-70" connectable="0" vertex="1">
          <mxGeometry x="1" relative="1" as="geometry" />
        </mxCell>
        <mxCell id="wJNEALnFPRHk9ui76Nys-76" value="Relation" style="endArrow=open;html=1;endSize=12;startArrow=diamondThin;startSize=14;startFill=0;edgeStyle=orthogonalEdgeStyle;rounded=0;exitX=1;exitY=0.5;exitDx=0;exitDy=0;entryX=0;entryY=0.5;entryDx=0;entryDy=0;" parent="WIyWlLk6GJQsqaUBKTNV-1" source="uS8OOOCSnNwOLfQj2_W_-137" target="uS8OOOCSnNwOLfQj2_W_-215" edge="1">
          <mxGeometry relative="1" as="geometry">
            <mxPoint x="2310" y="-290" as="sourcePoint" />
            <mxPoint x="2470" y="-290" as="targetPoint" />
            <Array as="points">
              <mxPoint x="2460" y="-325" />
              <mxPoint x="2460" y="-651" />
            </Array>
          </mxGeometry>
        </mxCell>
        <mxCell id="wJNEALnFPRHk9ui76Nys-77" value="0..n" style="edgeLabel;resizable=0;html=1;align=left;verticalAlign=top;" parent="wJNEALnFPRHk9ui76Nys-76" connectable="0" vertex="1">
          <mxGeometry x="-1" relative="1" as="geometry" />
        </mxCell>
        <mxCell id="wJNEALnFPRHk9ui76Nys-78" value="1" style="edgeLabel;resizable=0;html=1;align=right;verticalAlign=top;" parent="wJNEALnFPRHk9ui76Nys-76" connectable="0" vertex="1">
          <mxGeometry x="1" relative="1" as="geometry" />
        </mxCell>
        <mxCell id="wJNEALnFPRHk9ui76Nys-79" value="Relation" style="endArrow=open;html=1;endSize=12;startArrow=diamondThin;startSize=14;startFill=0;edgeStyle=orthogonalEdgeStyle;rounded=0;exitX=0.25;exitY=0;exitDx=0;exitDy=0;entryX=0.25;entryY=1;entryDx=0;entryDy=0;" parent="WIyWlLk6GJQsqaUBKTNV-1" source="uS8OOOCSnNwOLfQj2_W_-148" target="uS8OOOCSnNwOLfQj2_W_-115" edge="1">
          <mxGeometry relative="1" as="geometry">
            <mxPoint x="2510" y="500" as="sourcePoint" />
            <mxPoint x="2519" y="450" as="targetPoint" />
          </mxGeometry>
        </mxCell>
        <mxCell id="wJNEALnFPRHk9ui76Nys-80" value="0..n" style="edgeLabel;resizable=0;html=1;align=left;verticalAlign=top;" parent="wJNEALnFPRHk9ui76Nys-79" connectable="0" vertex="1">
          <mxGeometry x="-1" relative="1" as="geometry" />
        </mxCell>
        <mxCell id="wJNEALnFPRHk9ui76Nys-81" value="1" style="edgeLabel;resizable=0;html=1;align=right;verticalAlign=top;" parent="wJNEALnFPRHk9ui76Nys-79" connectable="0" vertex="1">
          <mxGeometry x="1" relative="1" as="geometry" />
        </mxCell>
        <mxCell id="wJNEALnFPRHk9ui76Nys-82" value="" style="endArrow=diamondThin;endFill=1;endSize=24;html=1;rounded=0;exitX=0.25;exitY=0;exitDx=0;exitDy=0;entryX=0;entryY=1;entryDx=0;entryDy=0;" parent="WIyWlLk6GJQsqaUBKTNV-1" source="uS8OOOCSnNwOLfQj2_W_-166" target="uS8OOOCSnNwOLfQj2_W_-210" edge="1">
          <mxGeometry width="160" relative="1" as="geometry">
            <mxPoint x="2895" y="30" as="sourcePoint" />
            <mxPoint x="2465" y="374" as="targetPoint" />
          </mxGeometry>
        </mxCell>
        <mxCell id="wJNEALnFPRHk9ui76Nys-83" value="" style="endArrow=diamondThin;endFill=1;endSize=24;html=1;rounded=0;entryX=0.5;entryY=1;entryDx=0;entryDy=0;exitX=0.5;exitY=0;exitDx=0;exitDy=0;" parent="WIyWlLk6GJQsqaUBKTNV-1" source="wJNEALnFPRHk9ui76Nys-4" target="uS8OOOCSnNwOLfQj2_W_-42" edge="1">
          <mxGeometry width="160" relative="1" as="geometry">
            <mxPoint x="1110" y="1326" as="sourcePoint" />
            <mxPoint x="1110" y="1384" as="targetPoint" />
          </mxGeometry>
        </mxCell>
        <mxCell id="wJNEALnFPRHk9ui76Nys-84" value="" style="endArrow=diamondThin;endFill=1;endSize=24;html=1;rounded=0;exitX=1;exitY=0.5;exitDx=0;exitDy=0;entryX=0;entryY=0.5;entryDx=0;entryDy=0;" parent="WIyWlLk6GJQsqaUBKTNV-1" source="uS8OOOCSnNwOLfQj2_W_-44" target="uS8OOOCSnNwOLfQj2_W_-135" edge="1">
          <mxGeometry width="160" relative="1" as="geometry">
            <mxPoint x="1800" y="210" as="sourcePoint" />
            <mxPoint x="1620" y="-166" as="targetPoint" />
          </mxGeometry>
        </mxCell>
        <mxCell id="wJNEALnFPRHk9ui76Nys-85" value="" style="endArrow=diamondThin;endFill=1;endSize=24;html=1;rounded=0;exitX=1;exitY=0.5;exitDx=0;exitDy=0;entryX=0;entryY=0.5;entryDx=0;entryDy=0;" parent="WIyWlLk6GJQsqaUBKTNV-1" source="uS8OOOCSnNwOLfQj2_W_-45" target="uS8OOOCSnNwOLfQj2_W_-127" edge="1">
          <mxGeometry width="160" relative="1" as="geometry">
            <mxPoint x="1690" y="623" as="sourcePoint" />
            <mxPoint x="1810" y="70" as="targetPoint" />
          </mxGeometry>
        </mxCell>
        <mxCell id="lKfXKW-pfRKCR70L9pjV-8" value="" style="endArrow=diamondThin;endFill=1;endSize=24;html=1;rounded=0;entryX=1;entryY=0.5;entryDx=0;entryDy=0;exitX=0;exitY=0.5;exitDx=0;exitDy=0;" edge="1" parent="WIyWlLk6GJQsqaUBKTNV-1" source="wJNEALnFPRHk9ui76Nys-8" target="MnSycOdXHLAEnKFS3MfO-51">
          <mxGeometry width="160" relative="1" as="geometry">
            <mxPoint x="760" y="1730" as="sourcePoint" />
            <mxPoint x="920" y="1730" as="targetPoint" />
          </mxGeometry>
        </mxCell>
      </root>
    </mxGraphModel>
  </diagram>
</mxfile>
